<?xml version="1.0" encoding="utf-8"?>
<!-- Generator: Adobe Illustrator 22.0.1, SVG Export Plug-In . SVG Version: 6.00 Build 0)  -->
<svg version="1.1" id="Layer_1" xmlns="http://www.w3.org/2000/svg" xmlns:xlink="http://www.w3.org/1999/xlink" x="0px" y="0px"
	 viewBox="0 0 57.5 64.2" style="enable-background:new 0 0 57.5 64.2;" xml:space="preserve">
<style type="text/css">
	.st0{fill:#00A0DD;}
</style>
<g>
	<path class="st0" d="M47.5,19.4c-1.5,0-2.9-0.7-3.8-2c-3.7-5.1-9.1-8-14.9-8c-5.8,0-11.2,2.9-14.9,8c-1.5,2.1-4.5,2.6-6.6,1
		c-2.1-1.5-2.6-4.5-1-6.6C11.7,4.3,19.9,0,28.8,0c8.9,0,17.1,4.3,22.6,11.9c1.5,2.1,1.1,5.1-1,6.6C49.4,19.1,48.5,19.4,47.5,19.4z"
		/>
	<path class="st0" d="M28.8,64.2C12.9,64.2,0,50.3,0,33.1c0-2.9,0.4-5.9,1.1-8.7c0.7-2.5,3.3-4,5.8-3.4c2.5,0.7,4,3.3,3.4,5.8
		c-0.5,2-0.8,4.1-0.8,6.2c0,11.9,8.6,21.6,19.2,21.6C39.4,54.7,48,45,48,33.1c0-2.1-0.3-4.2-0.8-6.2c-0.7-2.5,0.8-5.1,3.4-5.8
		c2.5-0.7,5.1,0.8,5.8,3.4c0.8,2.8,1.1,5.8,1.1,8.7C57.5,50.3,44.6,64.2,28.8,64.2z"/>
</g>
</svg>
