<?xml version="1.0" standalone="no"?>
<!-- Generator: Adobe Fireworks 10, Export SVG Extension by Aaron Beall (http://fireworks.abeall.com) . Version: 0.6.1  -->
<!DOCTYPE svg PUBLIC "-//W3C//DTD SVG 1.1//EN" "http://www.w3.org/Graphics/SVG/1.1/DTD/svg11.dtd">
<svg id="GLG-Icon-Sprite-Page%201" viewBox="0 0 231 400" style="background-color:#ffffff00" version="1.1"
	xmlns="http://www.w3.org/2000/svg" xmlns:xlink="http://www.w3.org/1999/xlink" xml:space="preserve"
	x="0px" y="0px" width="231px" height="400px"
>
	<g id="Layer%201">
		<path d="M 70.2691 7.2057 C 70.1906 7.1487 70.0976 7.1193 69.999 7.1193 C 69.902 7.1193 69.8087 7.1487 69.7292 7.2057 L 63.2243 12.3924 C 63.083 12.4956 63 12.66 63 12.8342 L 63 19.0941 C 63 20.1454 63.8539 21 64.903 21 L 68 21 L 68 15.9639 C 68 15.496 68.3823 15 68.8497 15 L 71.1503 15 C 71.6177 15 72 15.383 72 15.851 L 72 21 L 75.0219 21 C 76.071 21 77 20.1454 77 19.0941 L 77 12.8342 C 77 12.66 76.9161 12.4956 76.7757 12.3924 L 70.2691 7.2057 ZM 79.7463 10.0983 L 70.7538 3.2494 L 70.7317 3.2359 L 70.6724 3.1971 C 70.4716 3.0682 70.2408 3 69.999 3 C 69.7388 3 69.4891 3.0804 69.2756 3.2303 L 69.239 3.2541 L 60.2535 10.0992 C 59.9707 10.314 59.8908 11.1548 60.1055 11.4373 C 60.3199 11.7199 60.7486 12.3382 61.0314 12.1229 L 69.718 5.5057 C 69.7975 5.4492 69.902 5.4127 69.999 5.4127 C 70.0976 5.4127 70.1906 5.4422 70.2691 5.4987 L 78.9688 12.1234 C 79.2509 12.3382 79.6284 11.7199 79.8433 11.4373 C 80.058 11.1548 80.0284 10.314 79.7463 10.0983 ZM 65.4952 4.7412 C 65.4952 4.3325 65.1642 4 64.7562 4 L 63.7402 4 C 63.3308 4 63 4.3325 63 4.7412 L 63 7.2139 L 65.8638 5.0134 L 65.4952 4.7412 Z" fill="#ffffff"/>
		<path d="M 48 16 C 47.4478 16 47 15.5522 47 15 L 47 13.73 C 46.4022 13.3843 46 12.7404 46 12 C 46 10.8954 46.8954 10 48 10 C 49.1046 10 50 10.8954 50 12 C 50 12.7404 49.5978 13.3843 49 13.73 L 49 15 C 49 15.5522 48.5522 16 48 16 ZM 48 1.395 C 45.8372 1.4554 44 3.3269 44 5.5 L 44 7 L 43 7 C 41.8955 7 41 7.8955 41 9 L 41 15.5 C 41 16.6046 41.8955 18 43 18 L 53 18 C 54.1045 18 55 16.6046 55 15.5 L 55 9 C 55 7.8955 54.1045 7 53 7 L 52 7 L 52 5.5 C 52 3.3269 50.1628 1.4554 48 1.395 ZM 46 5.5 C 46 4.4315 46.9388 3.4573 48 3.395 C 49.0612 3.4573 50 4.4315 50 5.5 L 50 7 L 46 7 L 46 5.5 Z" fill="#878787"/>
		<path d="M 48 36 C 47.4478 36 47 35.5522 47 35 L 47 33.73 C 46.4022 33.3843 46 32.7404 46 32 C 46 30.8954 46.8954 30 48 30 C 49.1046 30 50 30.8954 50 32 C 50 32.7404 49.5978 33.3843 49 33.73 L 49 35 C 49 35.5522 48.5522 36 48 36 ZM 48 21.395 C 45.8372 21.4554 44 23.3269 44 25.5 L 44 27 L 43 27 C 41.8955 27 41 27.8955 41 29 L 41 35.5 C 41 36.6046 41.8955 38 43 38 L 53 38 C 54.1045 38 55 36.6046 55 35.5 L 55 29 C 55 27.8955 54.1045 27 53 27 L 52 27 L 52 25.5 C 52 23.3269 50.1628 21.4554 48 21.395 ZM 46 25.5 C 46 24.4315 46.9388 23.4573 48 23.395 C 49.0612 23.4573 50 24.4315 50 25.5 L 50 27 L 46 27 L 46 25.5 Z" fill="#c4ccdf"/>
		<path id="Member%20Male%20Icon%20v3.png" d="M 40 58 C 40.0231 57.9536 40.0398 57.9039 40.0636 57.858 C 40.1298 55.6646 41.6001 54.4739 43.6509 54.124 C 44.3779 53.7209 45.1675 53.4203 46 53.2308 L 46 52.2809 C 44.813 51.0155 44.0024 48.8383 44.0024 47.0001 C 44.0024 44.2386 45.8324 42 48.0388 42 C 50.2452 42 51.9976 44.2386 51.9976 47.0001 C 51.9976 48.854 51.1914 51.0518 50 52.3118 L 50 53.2308 C 50.8353 53.4208 51.6272 53.7233 52.3562 54.1283 C 54.4058 54.4772 55.9501 55.6678 56.0151 57.8604 C 56.0386 57.9055 56.0549 57.9545 56.0776 58 L 40 58 Z" fill="#878787"/>
		<path id="Member%20Male%20Icon%20v3.png2" d="M 40 78 C 40.0231 77.9536 40.0398 77.9039 40.0636 77.858 C 40.1298 75.6646 41.6001 74.4739 43.6509 74.124 C 44.3779 73.7209 45.1675 73.4203 46 73.2308 L 46 72.2809 C 44.813 71.0155 44.0024 68.8383 44.0024 67.0001 C 44.0024 64.2386 45.8324 62 48.0388 62 C 50.2452 62 51.9976 64.2386 51.9976 67.0001 C 51.9976 68.854 51.1914 71.0518 50 72.3118 L 50 73.2308 C 50.8353 73.4208 51.6272 73.7233 52.3562 74.1283 C 54.4058 74.4772 55.9501 75.6678 56.0151 77.8604 C 56.0386 77.9055 56.0549 77.9545 56.0776 78 L 40 78 Z" fill="#c4ccdf"/>
		<path d="M 33.0449 62.946 L 33.0596 62.9498 C 33.2822 62.998 33.5233 63.0137 33.7803 62.9872 C 36.3939 62.7188 35.9753 60.7396 35.9753 60.7396 L 35.9571 60.7021 C 35.9697 60.5966 35.9753 60.4882 35.9753 60.3792 C 35.9753 58.9386 34.8562 57.7709 33.4756 57.7709 C 32.5028 57.7709 31.6619 58.3519 31.2487 59.1984 C 29.9823 58.5283 26.9739 55.4052 26.4248 54.0298 C 27.347 53.6459 27.9995 52.7073 27.9995 51.6083 C 27.9995 50.1677 26.8804 49 25.4998 49 C 24.2961 49 23.2918 49.8878 23.054 51.0698 L 23.0198 51.0698 L 23.009 51.423 L 23 51.6083 L 23.0044 51.6985 C 23.0388 56.4761 28.5013 62.4003 32.9528 62.9292 L 33.0449 62.946 Z" fill="#12337f"/>
		<path d="M 33.0449 46.946 L 33.0596 46.9498 C 33.2822 46.998 33.5233 47.0137 33.7803 46.9872 C 36.3939 46.7188 35.9753 44.7396 35.9753 44.7396 L 35.9571 44.7021 C 35.9697 44.5966 35.9753 44.4882 35.9753 44.3792 C 35.9753 42.9386 34.8562 41.7709 33.4756 41.7709 C 32.5028 41.7709 31.6619 42.3519 31.2487 43.1984 C 29.9823 42.5283 26.9739 39.4052 26.4248 38.0298 C 27.347 37.6459 27.9995 36.7073 27.9995 35.6083 C 27.9995 34.1677 26.8804 33 25.4998 33 C 24.2961 33 23.2918 33.8878 23.054 35.0698 L 23.0198 35.0698 L 23.009 35.423 L 23 35.6083 L 23.0044 35.6985 C 23.0388 40.4761 28.5013 46.4003 32.9528 46.9292 L 33.0449 46.946 Z" fill="#c4ccdf"/>
		<path d="M 33.0449 30.946 L 33.0596 30.9498 C 33.2822 30.998 33.5233 31.0137 33.7803 30.9872 C 36.3939 30.7188 35.9753 28.7396 35.9753 28.7396 L 35.9571 28.7021 C 35.9697 28.5966 35.9753 28.4882 35.9753 28.3792 C 35.9753 26.9386 34.8562 25.7709 33.4756 25.7709 C 32.5028 25.7709 31.6619 26.3519 31.2487 27.1984 C 29.9823 26.5283 26.9739 23.4052 26.4248 22.0298 C 27.347 21.6459 27.9995 20.7073 27.9995 19.6083 C 27.9995 18.1677 26.8804 17 25.4998 17 C 24.2961 17 23.2918 17.8878 23.054 19.0698 L 23.0198 19.0698 L 23.009 19.423 L 23 19.6083 L 23.0044 19.6985 C 23.0388 24.4761 28.5013 30.4003 32.9528 30.9292 L 33.0449 30.946 Z" fill="#c3c3c3"/>
		<path opacity="0.251" d="M 34.0449 15.946 L 34.0596 15.9498 C 34.2822 15.998 34.5233 16.0137 34.7803 15.9872 C 37.3939 15.7188 36.9753 13.7396 36.9753 13.7396 L 36.9571 13.7021 C 36.9697 13.5966 36.9753 13.4882 36.9753 13.3792 C 36.9753 11.9386 35.8562 10.7709 34.4756 10.7709 C 33.5028 10.7709 32.6619 11.3519 32.2487 12.1984 C 30.9823 11.5283 27.9739 8.4052 27.4248 7.0298 C 28.347 6.6459 28.9995 5.7073 28.9995 4.6083 C 28.9995 3.1677 27.8804 2 26.4998 2 C 25.2961 2 24.2918 2.8878 24.054 4.0698 L 24.0198 4.0698 L 24.009 4.423 L 24 4.6083 L 24.0044 4.6985 C 24.0388 9.4761 29.5013 15.4003 33.9528 15.9292 L 34.0449 15.946 Z" fill="#000000"/>
		<path d="M 33.0449 14.946 L 33.0596 14.9498 C 33.2822 14.998 33.5233 15.0137 33.7803 14.9872 C 36.3939 14.7188 35.9753 12.7396 35.9753 12.7396 L 35.9571 12.7021 C 35.9697 12.5966 35.9753 12.4882 35.9753 12.3792 C 35.9753 10.9386 34.8562 9.7709 33.4756 9.7709 C 32.5028 9.7709 31.6619 10.3519 31.2487 11.1984 C 29.9823 10.5283 26.9739 7.4052 26.4248 6.0298 C 27.347 5.6459 27.9995 4.7073 27.9995 3.6083 C 27.9995 2.1677 26.8804 1 25.4998 1 C 24.2961 1 23.2918 1.8878 23.054 3.0698 L 23.0198 3.0698 L 23.009 3.423 L 23 3.6083 L 23.0044 3.6985 C 23.0388 8.4761 28.5013 14.4003 32.9528 14.9292 L 33.0449 14.946 Z" fill="#ffffff"/>
		<path d="M 81.7458 31.6252 C 81.9576 31.8894 82.0371 32.2063 81.9841 32.5759 L 80.9779 38.3336 C 80.9426 38.633 80.0603 39 79.7601 39 L 65 39 L 65 41 L 78.9797 41 C 79.3152 41 79.4069 41.1188 79.6543 41.3566 C 79.9012 41.5942 80.0248 41.8903 80.0248 42.2424 C 80.0248 42.5945 79.9012 42.4057 79.6543 42.6434 C 79.4069 42.8812 79.1158 43 78.7804 43 L 63.3179 43 C 62.9474 43 62.7355 38.4128 62.7355 38.4128 L 61.7294 28.3239 L 58.8699 27.4258 C 58.5344 27.3202 58.2917 27.1177 58.1417 26.8185 C 57.9918 26.519 57.9607 26.2021 58.0491 25.8677 C 58.1548 25.5331 58.3623 25.291 58.6714 25.1414 C 58.9802 24.9918 59.2935 24.9608 59.6112 25.0489 L 63.265 26.211 C 63.4945 26.2813 63.572 26.4135 63.7219 26.6071 C 63.8722 26.8008 63.9647 27.021 64 27.2673 L 64 29.2747 L 80.5745 31.1234 C 80.9453 31.1761 81.5516 31.3434 81.7458 31.6252 L 81.7458 31.6252 ZM 65.1978 44.1704 C 65.7274 44.1704 66.1775 44.3552 66.548 44.725 C 66.9187 45.0946 67.1042 45.5437 67.1042 46.0719 C 67.1042 46.6002 66.9187 47.0536 66.548 47.4321 C 66.1775 47.8108 65.7274 48 65.1978 48 C 64.6683 48 64.2181 47.8108 63.8474 47.4321 C 63.4767 47.0536 63.2915 46.6002 63.2915 46.0719 C 63.2915 45.5437 63.4767 45.0946 63.8474 44.725 C 64.2181 44.3552 64.6683 44.1704 65.1978 44.1704 L 65.1978 44.1704 ZM 76.5033 44.1704 C 77.033 44.1704 77.483 44.3552 77.8539 44.725 C 78.2244 45.0946 78.4098 45.5437 78.4098 46.0719 C 78.4098 46.6002 78.2244 47.0536 77.8539 47.4321 C 77.483 47.8108 77.033 48 76.5033 48 C 75.974 48 75.5238 47.8108 75.1531 47.4321 C 74.7823 47.0536 74.597 46.6002 74.597 46.0719 C 74.597 45.5437 74.7823 45.0946 75.1531 44.725 C 75.5238 44.3552 75.974 44.1704 76.5033 44.1704 L 76.5033 44.1704 ZM 76.5033 44.1704 L 76.5033 44.1704 Z" fill="#c3c3c3"/>
		<path d="M 81.7458 55.6252 C 81.9576 55.8894 82.0371 56.2063 81.9841 56.5759 L 80.9779 62.3336 C 80.9426 62.633 80.0603 63 79.7601 63 L 65 63 L 65 65 L 78.9797 65 C 79.3152 65 79.4069 65.1188 79.6543 65.3566 C 79.9012 65.5942 80.0248 65.8903 80.0248 66.2424 C 80.0248 66.5945 79.9012 66.4057 79.6543 66.6434 C 79.4069 66.8812 79.1158 67 78.7804 67 L 63.3179 67 C 62.9474 67 62.7355 62.4128 62.7355 62.4128 L 61.7294 52.3239 L 58.8699 51.4258 C 58.5344 51.3202 58.2917 51.1177 58.1417 50.8185 C 57.9918 50.519 57.9607 50.2021 58.0491 49.8677 C 58.1548 49.5331 58.3623 49.291 58.6714 49.1414 C 58.9802 48.9918 59.2935 48.9608 59.6112 49.0489 L 63.265 50.211 C 63.4945 50.2813 63.572 50.4135 63.7219 50.6071 C 63.8722 50.8008 63.9647 51.021 64 51.2673 L 64 53.2747 L 80.5745 55.1234 C 80.9453 55.1761 81.5516 55.3434 81.7458 55.6252 L 81.7458 55.6252 ZM 65.1978 68.1704 C 65.7274 68.1704 66.1775 68.3552 66.548 68.725 C 66.9187 69.0946 67.1042 69.5437 67.1042 70.0719 C 67.1042 70.6002 66.9187 71.0536 66.548 71.4321 C 66.1775 71.8108 65.7274 72 65.1978 72 C 64.6683 72 64.2181 71.8108 63.8474 71.4321 C 63.4767 71.0536 63.2915 70.6002 63.2915 70.0719 C 63.2915 69.5437 63.4767 69.0946 63.8474 68.725 C 64.2181 68.3552 64.6683 68.1704 65.1978 68.1704 L 65.1978 68.1704 ZM 76.5033 68.1704 C 77.033 68.1704 77.483 68.3552 77.8539 68.725 C 78.2244 69.0946 78.4098 69.5437 78.4098 70.0719 C 78.4098 70.6002 78.2244 71.0536 77.8539 71.4321 C 77.483 71.8108 77.033 72 76.5033 72 C 75.974 72 75.5238 71.8108 75.1531 71.4321 C 74.7823 71.0536 74.597 70.6002 74.597 70.0719 C 74.597 69.5437 74.7823 69.0946 75.1531 68.725 C 75.5238 68.3552 75.974 68.1704 76.5033 68.1704 L 76.5033 68.1704 ZM 76.5033 68.1704 L 76.5033 68.1704 Z" fill="#ffffff"/>
		<path id="Search" opacity="0.502" d="M 56.5332 258.5332 C 55.9474 259.119 54.9976 259.119 54.4119 258.5332 L 51.7644 255.8857 C 50.6758 256.5834 49.3892 257 48 257 C 44.134 257 41 253.8661 41 250 C 41 246.134 44.134 243 48 243 C 51.8661 243 55 246.134 55 250 C 55 251.389 54.5834 252.6758 53.8857 253.7644 L 56.5332 256.4118 C 57.1189 256.9976 57.1189 257.9474 56.5332 258.5332 ZM 48 245 C 45.2386 245 43 247.2386 43 250 C 43 252.7615 45.2386 255 48 255 C 50.7615 255 53 252.7615 53 250 C 53 247.2386 50.7615 245 48 245 Z" fill="#091e5f"/>
		<path id="Search2" d="M 55.5332 257.5332 C 54.9474 258.119 53.9976 258.119 53.4119 257.5332 L 50.7644 254.8857 C 49.6758 255.5834 48.3892 256 47 256 C 43.134 256 40 252.8661 40 249 C 40 245.134 43.134 242 47 242 C 50.8661 242 54 245.134 54 249 C 54 250.389 53.5834 251.6758 52.8857 252.7644 L 55.5332 255.4118 C 56.1189 255.9976 56.1189 256.9474 55.5332 257.5332 ZM 47 244 C 44.2386 244 42 246.2386 42 249 C 42 251.7615 44.2386 254 47 254 C 49.7615 254 52 251.7615 52 249 C 52 246.2386 49.7615 244 47 244 Z" fill="#ffffff"/>
		<path d="M 21.7445 10.4326 L 18.9243 7.4701 C 19.4058 6.7153 19.6863 5.819 19.6863 4.8567 C 19.6863 2.1744 17.5178 0 14.843 0 C 12.1682 0 10 2.1744 10 4.8567 C 10 7.5386 12.1682 9.7131 14.843 9.7131 C 15.8889 9.7131 16.8566 9.3794 17.6483 8.8145 L 20.4072 11.7128 C 20.7596 12.0834 21.3447 12.0973 21.7141 11.7432 C 22.0831 11.39 22.0967 10.8035 21.7445 10.4326 ZM 11.4871 4.8567 C 11.4871 2.9978 12.9893 1.491 14.843 1.491 C 16.6965 1.491 18.1991 2.9978 18.1991 4.8567 C 18.1991 6.7153 16.6965 8.2222 14.843 8.2222 C 12.9893 8.2222 11.4871 6.7153 11.4871 4.8567 Z" fill="#404040"/>
		<path d="M 21.7445 22.4326 L 18.9243 19.4701 C 19.4058 18.7153 19.6863 17.819 19.6863 16.8567 C 19.6863 14.1744 17.5178 12 14.843 12 C 12.1682 12 10 14.1744 10 16.8567 C 10 19.5386 12.1682 21.7131 14.843 21.7131 C 15.8889 21.7131 16.8566 21.3794 17.6483 20.8145 L 20.4072 23.7128 C 20.7596 24.0834 21.3447 24.0973 21.7141 23.7432 C 22.0831 23.39 22.0967 22.8035 21.7445 22.4326 ZM 11.4871 16.8567 C 11.4871 14.9978 12.9893 13.491 14.843 13.491 C 16.6965 13.491 18.1991 14.9978 18.1991 16.8567 C 18.1991 18.7153 16.6965 20.2222 14.843 20.2222 C 12.9893 20.2222 11.4871 18.7153 11.4871 16.8567 Z" fill="#ffffff"/>
		<path d="M 52.5 233.5 L 50 231 L 48 232.5 L 46 231 L 43.5 233.5 L 42.5 232.5 L 45 230 L 42.5 227.5 L 43.5 226.5 L 48 231 L 52.5 226.5 L 53.5 227.5 L 51 230 L 53.5 232.5 L 52.5 233.5 ZM 54 236 C 55.1046 236 56 235.1045 56 234 L 56 226 C 56 224.8955 55.1046 224 54 224 L 42 224 C 40.8955 224 40 224.8955 40 226 L 40 234 C 40 235.1045 40.8955 236 42 236 L 54 236 Z" fill="#c4ccdf"/>
		<path d="M 70 240 C 63.3728 240 58 245.374 58 252.0005 C 58 258.6279 63.3728 264 70 264 C 76.6272 264 82 258.6279 82 252.0005 C 82 245.374 76.6272 240 70 240 ZM 73.1766 251.95 L 71.0989 251.95 C 71.0989 255.2708 71.0989 259.3608 71.0989 259.3608 L 68.0184 259.3608 C 68.0184 259.3608 68.0184 255.3127 68.0184 251.95 L 66.5541 251.95 L 66.5541 249.3335 L 68.0184 249.3335 L 68.0184 247.6382 C 68.0184 246.4248 68.5947 244.5308 71.127 244.5308 L 73.4073 244.5393 L 73.4073 247.0806 C 73.4073 247.0806 72.0206 247.0806 71.7513 247.0806 C 71.4814 247.0806 71.0989 247.2156 71.0989 247.7925 L 71.0989 249.3335 L 73.4464 249.3335 L 73.1766 251.95 Z" fill="#3b5998"/>
		<path d="M 70.0002 336 C 63.3729 336 58 341.3721 58 347.9995 C 58 354.627 63.3729 360 70.0002 360 C 76.6272 360 82 354.627 82 347.9995 C 82 341.3721 76.6272 336 70.0002 336 ZM 68.9086 354.5288 C 68.4303 354.667 67.9139 354.7373 67.3713 354.7373 C 66.7684 354.7373 66.1874 354.668 65.6467 354.5308 C 64.5988 354.2666 63.8235 353.7651 63.4629 353.1196 C 63.3073 352.8403 63.2278 352.543 63.2278 352.2346 C 63.2278 351.9167 63.3043 351.595 63.4537 351.2766 C 64.0282 350.0532 65.5411 349.2312 67.2167 349.2312 L 67.2653 349.2307 C 67.1287 348.9912 67.0626 348.7429 67.0626 348.4819 C 67.0626 348.3511 67.0797 348.2188 67.1139 348.0847 C 65.356 348.0437 64.0405 346.7568 64.0405 345.0598 C 64.0405 343.8611 64.9985 342.6941 66.3682 342.2217 C 66.7784 342.0801 67.1968 342.0078 67.6079 342.0078 L 71.3666 342.0078 C 71.4946 342.0078 71.6074 342.0908 71.6473 342.2124 C 71.6877 342.3347 71.6436 342.468 71.5393 342.5435 L 70.6993 343.1514 C 70.6489 343.188 70.588 343.2075 70.5251 343.2075 L 70.2244 343.2075 C 70.6132 343.6733 70.8412 344.3364 70.8412 345.083 C 70.8412 345.907 70.4243 346.686 69.6666 347.2788 C 69.0808 347.7349 69.0575 347.8596 69.0575 348.1213 C 69.0651 348.2646 69.4734 348.7314 69.9227 349.0493 C 70.9716 349.7913 71.3613 350.5181 71.3613 351.7329 C 71.3613 352.9995 70.3986 354.0962 68.9086 354.5288 ZM 77.399 348.0808 C 77.399 348.2441 77.2657 348.3765 77.103 348.3765 L 74.9668 348.3765 L 74.9668 350.5132 C 74.9668 350.6765 74.8345 350.8088 74.6711 350.8088 L 74.063 350.8088 C 73.8993 350.8088 73.767 350.6765 73.767 350.5132 L 73.767 348.3765 L 71.6301 348.3765 C 71.4679 348.3765 71.3352 348.2441 71.3352 348.0808 L 71.3352 347.4722 C 71.3352 347.3096 71.4679 347.1763 71.6301 347.1763 L 73.767 347.1763 L 73.767 345.0403 C 73.767 344.8765 73.8993 344.7441 74.063 344.7441 L 74.6711 344.7441 C 74.8345 344.7441 74.9668 344.8765 74.9668 345.0403 L 74.9668 347.1763 L 77.103 347.1763 C 77.2657 347.1763 77.399 347.3096 77.399 347.4722 L 77.399 348.0808 ZM 68.6725 350.468 L 68.4188 350.2949 C 68.1624 350.2163 67.8906 350.1748 67.6122 350.1716 L 67.5775 350.1716 C 66.2982 350.1716 65.1757 350.9468 65.1757 351.8311 C 65.1757 352.792 66.1365 353.5454 67.3643 353.5454 C 68.9833 353.5454 69.8037 352.9875 69.8037 351.8862 C 69.8037 351.782 69.7909 351.6743 69.7661 351.5669 C 69.6566 351.1387 69.265 350.8721 68.6725 350.468 ZM 67.7659 347.1123 C 68.0724 347.1123 68.3308 346.9917 68.5306 346.7632 C 68.8447 346.4058 68.9833 345.8193 68.9014 345.1958 C 68.7549 344.082 67.9601 343.1567 67.1292 343.1318 L 67.0958 343.1313 C 66.8018 343.1313 66.5396 343.252 66.3396 343.4805 C 66.0299 343.8335 65.8994 344.3921 65.9813 345.0137 C 66.127 346.1265 66.9384 347.0876 67.7521 347.1123 L 67.7659 347.1123 Z" fill="#dd4b39"/>
		<path d="M 70.0005 288 C 63.373 288 58 293.374 58 300.0005 C 58 306.6279 63.373 312 70.0005 312 C 76.6279 312 82 306.6279 82 300.0005 C 82 293.374 76.6279 288 70.0005 288 ZM 76.0459 297.5811 C 76.0519 297.7109 76.0542 297.8413 76.0542 297.9722 C 76.0542 301.9688 73.0125 306.5771 67.4498 306.5771 C 65.7421 306.5771 64.1523 306.0762 62.8137 305.2183 C 63.0505 305.2458 63.2911 305.2603 63.535 305.2603 C 64.9523 305.2603 66.2563 304.7766 67.2911 303.9658 C 65.9679 303.9409 64.8511 303.0669 64.4664 301.8655 C 64.6509 301.9014 64.84 301.9199 65.0354 301.9199 C 65.3114 301.9199 65.5784 301.8831 65.8323 301.8135 C 64.4482 301.5356 63.4058 300.313 63.4058 298.8486 C 63.4058 298.8354 63.4058 298.8232 63.4063 298.8101 C 63.814 299.0366 64.2803 299.1729 64.7761 299.189 C 63.9646 298.6455 63.4305 297.7207 63.4305 296.6714 C 63.4305 296.1172 63.5798 295.5974 63.8401 295.1509 C 65.3315 296.981 67.5603 298.1846 70.0737 298.3105 C 70.0221 298.0894 69.9955 297.8584 69.9955 297.6216 C 69.9955 295.9514 71.3496 294.5977 73.0197 294.5977 C 73.8896 294.5977 74.6755 294.9648 75.2268 295.5522 C 75.9163 295.417 76.5632 295.1648 77.1477 294.8184 C 76.9216 295.5249 76.4421 296.1177 75.8175 296.4917 C 76.4297 296.4185 77.0125 296.2556 77.5547 296.0151 C 77.1498 296.6216 76.6365 297.1545 76.0459 297.5811 Z" fill="#00acee"/>
		<path d="M 73.5088 277.085 C 73.5088 276.0723 73.1581 275.3423 72.2792 275.3423 C 71.6094 275.3423 70.8406 275.8103 70.6648 276.2595 C 70.6008 276.4209 70.5847 276.644 70.5847 276.8701 L 70.5847 281.1167 L 68.1582 281.1167 C 68.1582 281.1167 68.1968 273.9761 68.1654 273.2698 L 70.5847 273.2698 L 70.5847 274.3369 C 70.5802 274.3452 70.5745 274.6279 70.5688 274.635 L 70.5919 274.635 L 70.5919 274.6104 C 70.915 274.0962 71.7659 273.3665 73.0536 273.3665 C 74.6504 273.3665 75.8479 274.4429 75.8479 276.7583 L 75.8479 281.1167 L 73.5088 281.1167 L 73.5088 277.085 ZM 65.6086 272.5142 L 65.5928 272.5142 C 64.7783 272.5142 64.2517 271.9341 64.2517 271.2114 C 64.2517 270.4722 64.7949 269.9087 65.6248 269.9087 C 66.4551 269.9087 66.9661 270.4722 66.9822 271.2114 C 66.9822 271.9341 66.4551 272.5142 65.6086 272.5142 ZM 66.4913 281.1167 L 64.1521 281.1167 L 64.1521 273.2698 L 66.4913 273.2698 L 66.4913 281.1167 ZM 70.0002 288 C 76.6272 288 82 282.6282 82 276 C 82 269.3728 76.6272 264 70.0002 264 C 63.3728 264 58 269.3728 58 276 C 58 282.6282 63.3728 288 70.0002 288 Z" fill="#0e76a8"/>
		<path d="M 70.002 312 C 63.3751 312 58 317.3745 58 324.002 C 58 330.6309 63.3751 336 70.002 336 C 76.6306 336 82 330.6309 82 324.002 C 82 317.3745 76.6306 312 70.002 312 ZM 75.7876 324.7549 L 68.655 329.9358 C 68.5055 330.0444 68.3284 330.1001 68.1501 330.1001 C 68.0178 330.1001 67.5914 330.0691 67.4686 330.0059 C 67.181 329.8594 67 329.5642 67 329.2417 L 67 318.8801 C 67 318.5566 67.181 318.262 67.4686 318.1152 C 67.7554 317.9685 68.394 317.9956 68.655 318.1853 L 75.7876 323.3662 C 76.0095 323.5276 76.141 323.7856 76.141 324.0605 C 76.141 324.3354 76.0105 324.5928 75.7876 324.7549 Z" fill="#c4302b"/>
		<path d="M 61 81 L 58 84 L 67 93 L 82 78 L 79 75 L 67 87 L 61 81 Z" fill="#3fb219"/>
		<g>
			<path d="M 167.3278 20.8331 L 163.0012 20.8331 L 163.0012 13.509 L 167.3278 13.509 L 167.3278 20.8331 Z" fill="#000000"/>
			<path d="M 167.6544 9.8473 C 167.6544 11.2261 166.5579 12.3445 165.2053 12.3445 C 163.8529 12.3445 162.7563 11.2261 162.7563 9.8473 C 162.7563 8.4684 163.8529 7.3505 165.2053 7.3505 C 166.5579 7.3505 167.6544 8.4684 167.6544 9.8473 Z" fill="#000000"/>
			<path d="M 175.5231 0 L 160 0 L 160 24 L 175.5231 24 L 175.5231 23.9955 C 178.9138 23.9484 181.6 23.0896 183.5062 21.4362 C 185.8246 19.4254 187 16.2506 187 12 C 187 9.9681 186.6908 8.1456 186.0811 6.5831 C 185.4978 5.0884 184.6357 3.8174 183.519 2.8056 C 181.5521 1.0236 178.7913 0.0601 175.5231 0.0052 L 175.5231 0 ZM 175.2292 1.594 C 178.2378 1.594 180.7451 2.425 182.4803 3.9971 C 184.4419 5.7743 185.4365 8.4668 185.4365 12 C 185.4365 19.0022 182.0977 22.406 175.2292 22.406 C 174.6956 22.406 162.9362 22.406 161.5635 22.406 C 161.5635 20.978 161.5635 3.022 161.5635 1.594 C 162.9362 1.594 174.6956 1.594 175.2292 1.594 Z" fill="#000000"/>
			<path d="M 174.8022 20.8414 L 169.3142 20.8414 L 169.3142 3.5345 L 174.8022 3.5345 L 174.5808 3.5345 C 179.1576 3.5345 184.0293 5.376 184.0293 12.2107 C 184.0293 19.4362 179.1576 20.8414 174.5808 20.8414 L 174.8022 20.8414 Z" fill="#cc0066"/>
			<path d="M 168.3684 8.0021 L 169.8751 8.0021 C 170.215 8.0021 170.474 8.0286 170.6522 8.0817 C 170.8917 8.1536 171.0969 8.2815 171.2678 8.4651 C 171.4386 8.6488 171.5686 8.8737 171.6577 9.1398 C 171.7468 9.4058 171.7914 9.7339 171.7914 10.124 C 171.7914 10.4668 171.7496 10.7622 171.666 11.0103 C 171.564 11.3133 171.4182 11.5585 171.2288 11.746 C 171.0858 11.8881 170.8927 11.9988 170.6494 12.0784 C 170.4674 12.1371 170.2242 12.1664 169.9197 12.1664 L 168.3684 12.1664 L 168.3684 8.0021 ZM 169.192 8.708 L 169.192 11.4605 L 169.8091 11.4605 C 170.0398 11.4605 170.2064 11.4473 170.3088 11.4208 C 170.4429 11.3868 170.5541 11.3292 170.6425 11.2479 C 170.7308 11.1666 170.803 11.033 170.8589 10.8468 C 170.9147 10.6606 170.9426 10.407 170.9426 10.0857 C 170.9426 9.7644 170.9147 9.5178 170.8589 9.3458 C 170.803 9.1739 170.7249 9.0397 170.6243 8.9434 C 170.5238 8.8469 170.3962 8.7817 170.2418 8.7477 C 170.1263 8.7213 169.9001 8.708 169.5634 8.708 L 169.192 8.708 Z" fill="#ffffff"/>
			<path d="M 168.2566 7.8882 L 168.2566 12.2803 L 169.9197 12.2803 C 170.2343 12.2803 170.4911 12.2489 170.6831 12.1869 C 170.9423 12.1022 171.1519 11.9813 171.3068 11.8275 C 171.5078 11.6285 171.6643 11.366 171.7717 11.0472 C 171.8589 10.7883 171.9031 10.4777 171.9031 10.124 C 171.9031 9.7233 171.8561 9.3797 171.7634 9.103 C 171.6694 8.8225 171.5299 8.5815 171.3488 8.3868 C 171.165 8.1892 170.9413 8.0497 170.6838 7.9724 C 170.4933 7.9158 170.2289 7.8882 169.8751 7.8882 L 168.2566 7.8882 ZM 169.8751 8.116 C 170.2028 8.116 170.4537 8.1412 170.621 8.1909 C 170.8398 8.2567 171.0303 8.3754 171.1868 8.5435 C 171.3456 8.7143 171.4685 8.9273 171.552 9.1766 C 171.6367 9.4296 171.6797 9.7483 171.6797 10.124 C 171.6797 10.4525 171.6395 10.7383 171.5604 10.9733 C 171.4646 11.2578 171.3268 11.4904 171.151 11.6643 C 171.021 11.7935 170.8408 11.8962 170.6154 11.97 C 170.4456 12.0248 170.2113 12.0526 169.9197 12.0526 C 169.9197 12.0526 168.6724 12.0526 168.48 12.0526 C 168.48 11.8432 168.48 8.3253 168.48 8.116 C 168.6715 8.116 169.8751 8.116 169.8751 8.116 Z" fill="#ffffff"/>
			<path d="M 169.0803 8.5941 L 169.0803 11.5743 L 169.8091 11.5743 C 170.0514 11.5743 170.2239 11.5602 170.3362 11.5313 C 170.4871 11.4929 170.6155 11.426 170.7173 11.3325 C 170.822 11.2362 170.9032 11.0883 170.9656 10.8801 C 171.0253 10.6813 171.0543 10.4214 171.0543 10.0857 C 171.0543 9.7491 171.025 9.4954 170.9648 9.3101 C 170.9033 9.1207 170.8146 8.9695 170.7008 8.8604 C 170.5858 8.7501 170.4393 8.6748 170.2654 8.6364 C 170.1415 8.608 169.9116 8.5941 169.5634 8.5941 L 169.0803 8.5941 ZM 169.5634 8.8219 C 169.9706 8.8219 170.1438 8.8419 170.2173 8.8588 C 170.3518 8.8884 170.4628 8.9447 170.5479 9.0262 C 170.6342 9.1091 170.7031 9.2286 170.7528 9.3816 C 170.8047 9.5413 170.8309 9.7781 170.8309 10.0857 C 170.8309 10.3942 170.8044 10.639 170.7521 10.8135 C 170.7025 10.9788 170.6405 11.0964 170.5676 11.1633 C 170.4934 11.2316 170.3972 11.2811 170.2819 11.3104 C 170.1885 11.3345 170.0295 11.3467 169.8091 11.3467 C 169.8091 11.3467 169.4535 11.3467 169.3037 11.3467 C 169.3037 11.1464 169.3037 9.0221 169.3037 8.8219 C 169.4128 8.8219 169.5634 8.8219 169.5634 8.8219 Z" fill="#ffffff"/>
			<path d="M 172.7234 12.1664 L 172.7234 8.0021 L 175.7471 8.0021 L 175.7471 8.708 L 173.547 8.708 L 173.547 9.6302 L 175.5935 9.6302 L 175.5935 10.3362 L 173.547 10.3362 L 173.547 11.4605 L 175.8253 11.4605 L 175.8253 12.1664 L 172.7234 12.1664 Z" fill="#ffffff"/>
			<path d="M 172.6116 7.8882 L 172.6116 12.2803 L 175.937 12.2803 L 175.937 11.3467 C 175.937 11.3467 173.8606 11.3467 173.6587 11.3467 C 173.6587 11.1835 173.6587 10.6132 173.6587 10.4501 C 173.8583 10.4501 175.7052 10.4501 175.7052 10.4501 L 175.7052 9.5164 C 175.7052 9.5164 173.8583 9.5164 173.6587 9.5164 C 173.6587 9.3661 173.6587 8.9722 173.6587 8.8219 C 173.8599 8.8219 175.8588 8.8219 175.8588 8.8219 L 175.8588 7.8882 L 172.6116 7.8882 ZM 175.6355 8.116 C 175.6355 8.2454 175.6355 8.4648 175.6355 8.5941 C 175.4342 8.5941 173.4353 8.5941 173.4353 8.5941 L 173.4353 9.7441 C 173.4353 9.7441 175.2822 9.7441 175.4819 9.7441 C 175.4819 9.8735 175.4819 10.0929 175.4819 10.2223 C 175.2822 10.2223 173.4353 10.2223 173.4353 10.2223 L 173.4353 11.5743 C 173.4353 11.5743 175.5116 11.5743 175.7136 11.5743 C 175.7136 11.7037 175.7136 11.9232 175.7136 12.0526 C 175.5138 12.0526 173.0348 12.0526 172.835 12.0526 C 172.835 11.8432 172.835 8.3253 172.835 8.116 C 173.0342 8.116 175.4362 8.116 175.6355 8.116 Z" fill="#ffffff"/>
			<path d="M 180.4379 12.1664 L 179.5405 12.1664 L 179.1841 11.2214 L 177.5522 11.2214 L 177.2141 12.1664 L 176.3391 12.1664 L 177.9264 8.0021 L 178.8043 8.0021 L 180.4379 12.1664 ZM 178.9194 10.5155 L 178.3563 8.9728 L 177.8047 10.5155 L 178.9194 10.5155 Z" fill="#ffffff"/>
			<path d="M 177.85 7.8882 L 176.1759 12.2803 L 177.2922 12.2803 C 177.2922 12.2803 177.585 11.4622 177.6304 11.3353 C 177.765 11.3353 178.9751 11.3353 179.1074 11.3353 C 179.1543 11.4596 179.4639 12.2803 179.4639 12.2803 L 180.6028 12.2803 L 178.8799 7.8882 L 177.85 7.8882 ZM 178.7288 8.116 C 178.7809 8.249 180.1614 11.7684 180.2729 12.0526 C 180.0762 12.0526 179.7197 12.0526 179.6172 12.0526 C 179.5703 11.9282 179.2607 11.1075 179.2607 11.1075 L 177.4741 11.1075 C 177.4741 11.1075 177.1814 11.9257 177.136 12.0526 C 177.033 12.0526 176.6946 12.0526 176.5023 12.0526 C 176.6099 11.7703 177.9514 8.2509 178.0029 8.116 C 178.1182 8.116 178.6144 8.116 178.7288 8.116 Z" fill="#ffffff"/>
			<path d="M 177.645 10.6294 L 179.0801 10.6294 L 178.3553 8.6433 L 177.645 10.6294 ZM 178.3574 9.3021 C 178.4799 9.6376 178.6868 10.2045 178.7588 10.4016 C 178.5626 10.4016 178.1592 10.4016 177.9642 10.4016 C 178.0344 10.2053 178.2373 9.6382 178.3574 9.3021 Z" fill="#ffffff"/>
			<path d="M 181.1268 12.1664 L 181.1268 8.0363 L 181.9504 8.0363 L 181.9504 11.4605 L 184.0027 11.4605 L 184.0027 12.1664 L 181.1268 12.1664 Z" fill="#ffffff"/>
			<path d="M 181.0151 7.9224 L 181.0151 12.2803 L 184.1144 12.2803 L 184.1144 11.3467 C 184.1144 11.3467 182.262 11.3467 182.0623 11.3467 C 182.0623 11.1339 182.0623 7.9224 182.0623 7.9224 L 181.0151 7.9224 ZM 181.8389 8.1501 C 181.8389 8.3629 181.8389 11.5743 181.8389 11.5743 C 181.8389 11.5743 183.6913 11.5743 183.891 11.5743 C 183.891 11.7037 183.891 11.9232 183.891 12.0526 C 183.693 12.0526 181.4365 12.0526 181.2385 12.0526 C 181.2385 11.8433 181.2385 8.3594 181.2385 8.1501 C 181.3793 8.1501 181.6981 8.1501 181.8389 8.1501 Z" fill="#ffffff"/>
		</g>
		<g>
			<path d="M 159.5 54.9998 C 159.5 48.3727 164.8353 43 171.4164 43 C 177.9973 43 183.333 48.3727 183.333 54.9998 C 183.333 61.627 177.9973 67 171.4164 67 C 164.8353 67 159.5 61.627 159.5 54.9998 L 159.5 54.9998 Z" fill="#ec1b23"/>
			<path d="M 175.6672 54.9998 C 175.6672 48.3727 181.0027 43 187.584 43 C 194.1643 43 199.5 48.3727 199.5 54.9998 C 199.5 61.627 194.1643 67 187.584 67 C 181.0027 67 175.6672 61.627 175.6672 54.9998 L 175.6672 54.9998 Z" fill="#ffc10d"/>
			<path d="M 181.5455 48.6785 L 174.99 48.6785 L 174.99 47.4056 L 180.6422 47.4056 C 180.9696 47.809 181.2715 48.2344 181.5455 48.6785 L 181.5455 48.6785 Z" fill="#ec1b23"/>
			<path d="M 182.7307 51.2267 L 174.99 51.2267 L 174.99 49.9515 L 182.2288 49.9515 C 182.4194 50.3644 182.5868 50.7899 182.7307 51.2267 L 182.7307 51.2267 Z" fill="#ec1b23"/>
			<path d="M 183.2714 53.775 L 174.99 53.775 L 174.99 52.5012 L 183.0729 52.5012 C 183.1609 52.9183 183.2278 53.3434 183.2714 53.775 L 183.2714 53.775 Z" fill="#ec1b23"/>
			<path d="M 183.26 56.3224 L 174.99 56.3224 L 174.99 55.048 L 183.332 55.048 C 183.3303 55.4785 183.3057 55.9035 183.26 56.3224 L 183.26 56.3224 Z" fill="#ec1b23"/>
			<path d="M 182.6986 58.8703 L 174.99 58.8703 L 174.99 57.5965 L 183.052 57.5965 C 182.9567 58.0301 182.8386 58.4554 182.6986 58.8703 L 182.6986 58.8703 Z" fill="#ec1b23"/>
			<path d="M 181.4851 61.4188 L 174.99 61.4188 L 174.99 60.1426 L 182.1852 60.1426 C 181.9769 60.5836 181.7429 61.0094 181.4851 61.4188 L 181.4851 61.4188 Z" fill="#ec1b23"/>
			<path d="M 179.3333 63.9668 L 174.99 63.9668 L 174.99 62.6927 L 180.5609 62.6927 C 180.183 63.1473 179.7728 63.5729 179.3333 63.9668 L 179.3333 63.9668 Z" fill="#ec1b23"/>
			<path d="M 166.2269 53.04 L 166.2101 53.04 L 164.1951 58.0406 L 163.4187 58.0406 L 162.5154 53.04 L 162.4983 53.04 L 161.9768 58.0406 L 160.9869 58.0406 L 161.6127 52.0433 L 163.2424 52.0433 L 164.0039 56.5199 L 164.0209 56.5199 L 165.7422 52.0433 L 167.3208 52.0433 L 166.6949 58.0406 L 165.7053 58.0406 L 166.2269 53.04 L 166.2269 53.04 Z" fill="#ffffff"/>
			<path d="M 169.8641 56.1242 C 169.7816 56.9147 169.502 57.3875 168.8705 57.3875 C 168.4611 57.3875 168.2251 57.1125 168.2673 56.7088 C 168.3346 56.0641 168.8918 55.8754 169.7961 55.8754 L 169.8903 55.8754 L 169.8641 56.1242 L 169.8641 56.1242 L 169.8641 56.1242 ZM 167.9873 54.7324 C 168.2098 54.5605 168.7061 54.3029 169.2351 54.3029 C 169.8408 54.3029 170.012 54.7068 169.9663 55.1451 L 169.9495 55.3082 L 169.7361 55.3082 C 168.3965 55.3082 167.3923 55.609 167.2668 56.8117 C 167.1809 57.6364 167.7628 58.109 168.4453 58.109 C 169.0768 58.109 169.4419 57.7996 169.7441 57.4388 L 169.761 57.4388 C 169.7386 57.6537 169.7249 57.8685 169.7581 58.0406 L 170.7136 58.0406 C 170.7061 57.8685 170.7024 57.5762 170.7355 57.2586 L 170.9371 55.325 C 171.0529 54.2172 170.807 53.5469 169.4419 53.5469 C 168.7681 53.5469 168.33 53.736 168.0172 53.873 L 167.9873 54.7324 L 167.9873 54.7324 Z" fill="#ffffff"/>
			<path d="M 171.1968 57.0096 C 171.3601 57.0781 171.772 57.3016 172.2668 57.3016 C 172.6508 57.3016 172.9594 57.207 172.9952 56.8633 C 173.0131 56.6914 172.9447 56.5283 172.5842 56.3051 L 172.1758 56.0467 C 171.7601 55.7809 171.3033 55.4969 171.376 54.8011 C 171.4395 54.191 172.0956 53.5469 173.0254 53.5469 C 173.5886 53.5469 174.0085 53.693 174.1074 53.7274 L 173.9615 54.5519 C 173.7078 54.4489 173.4362 54.3543 173.0522 54.3543 C 172.6256 54.3543 172.4292 54.5176 172.4016 54.784 C 172.3766 55.0246 172.5508 55.1531 172.8373 55.3512 L 173.3226 55.6863 C 173.8322 56.0383 174.0791 56.2875 174.0253 56.8027 C 173.9401 57.6191 173.2064 58.109 172.2507 58.109 C 171.7047 58.109 171.2661 57.9801 171.0531 57.8942 L 171.1968 57.0096 L 171.1968 57.0096 Z" fill="#ffffff"/>
			<path d="M 175.2037 52.7049 L 176.2959 52.3785 L 176.167 53.6156 L 177.0455 53.6156 L 176.9641 54.3973 L 176.0852 54.3973 L 175.8459 56.6914 C 175.7965 57.1641 175.9528 57.3016 176.26 57.3016 C 176.4478 57.3016 176.5896 57.25 176.6709 57.207 L 176.592 57.9631 C 176.4219 58.0406 176.1843 58.109 175.8685 58.109 C 175.0836 58.109 174.6776 57.748 174.7743 56.8203 L 175.0271 54.3973 L 174.3275 54.3973 L 174.4092 53.6156 L 175.1088 53.6156 L 175.2037 52.7049 L 175.2037 52.7049 Z" fill="#ffffff"/>
			<path d="M 178.0065 55.4455 C 178.0676 54.8613 178.3596 54.2686 178.9143 54.2686 C 179.3921 54.2686 179.6067 54.6639 179.5251 55.4455 L 178.0065 55.4455 L 178.0065 55.4455 L 178.0065 55.4455 ZM 180.1155 56.9836 C 179.9039 57.1295 179.5762 57.327 178.9277 57.327 C 178.1086 57.327 177.8577 56.8717 177.9365 56.1156 L 180.4791 56.1156 L 180.5009 55.9098 C 180.6891 54.1053 179.9368 53.5469 178.9895 53.5469 C 177.8718 53.5469 177.0741 54.5692 176.9362 55.8922 C 176.8113 57.0865 177.3187 58.109 178.7354 58.109 C 179.3666 58.109 179.8474 57.9201 180.079 57.8252 L 180.1155 56.9836 L 180.1155 56.9836 Z" fill="#ffffff"/>
			<path d="M 181.0907 54.3457 C 181.1191 54.0709 181.1377 53.8131 181.1326 53.6156 L 182.0883 53.6156 C 182.069 53.8818 182.0657 54.1566 182.0381 54.4232 L 182.0554 54.4232 C 182.2194 54.0793 182.6071 53.5469 183.264 53.5469 C 183.3325 53.5469 183.3818 53.5641 183.4406 53.5726 L 183.3367 54.5692 C 183.2456 54.5436 183.1533 54.5262 183.0422 54.5262 C 182.6074 54.5262 182.1016 54.7926 182.0159 55.6174 L 181.7629 58.0406 L 180.7051 58.0406 L 181.0907 54.3457 L 181.0907 54.3457 Z" fill="#ffffff"/>
			<path d="M 187.2025 57.9115 C 186.9684 58.032 186.4294 58.126 185.8921 58.126 C 184.0831 58.126 183.2922 56.7947 183.4752 55.0418 C 183.6581 53.2891 184.7269 51.9574 186.502 51.9574 C 187.1072 51.9574 187.5853 52.1207 187.7982 52.2067 L 187.6355 53.1945 C 187.425 53.0828 187.0977 52.868 186.5428 52.868 C 185.6387 52.868 184.7976 53.4865 184.6354 55.0418 C 184.4731 56.5969 185.1851 57.2156 186.0895 57.2156 C 186.6184 57.2156 186.9817 57.0865 187.2477 56.9063 L 187.2025 57.9115 L 187.2025 57.9115 Z" fill="#ffffff"/>
			<path d="M 190.0599 56.1242 C 189.9778 56.9147 189.6976 57.3875 189.0664 57.3875 C 188.6569 57.3875 188.4208 57.1125 188.4633 56.7088 C 188.5309 56.0641 189.0873 55.8754 189.9922 55.8754 L 190.0859 55.8754 L 190.0599 56.1242 L 190.0599 56.1242 L 190.0599 56.1242 ZM 188.1832 54.7324 C 188.4055 54.5605 188.902 54.3029 189.431 54.3029 C 190.0364 54.3029 190.208 54.7068 190.162 55.1451 L 190.1453 55.3082 L 189.9315 55.3082 C 188.5922 55.3082 187.5881 55.609 187.4626 56.8117 C 187.3767 57.6364 187.9587 58.109 188.6415 58.109 C 189.2725 58.109 189.6375 57.7996 189.9401 57.4388 L 189.9568 57.4388 C 189.9343 57.6537 189.9209 57.8685 189.9537 58.0406 L 190.9093 58.0406 C 190.9017 57.8685 190.8979 57.5762 190.9313 57.2586 L 191.1331 55.325 C 191.2487 54.2172 191.0028 53.5469 189.6375 53.5469 C 188.9637 53.5469 188.526 53.736 188.213 53.873 L 188.1832 54.7324 L 188.1832 54.7324 Z" fill="#ffffff"/>
			<path d="M 191.8243 54.3457 C 191.8528 54.0709 191.871 53.8131 191.8658 53.6156 L 192.8214 53.6156 C 192.8024 53.8818 192.7992 54.1566 192.7717 54.4232 L 192.7887 54.4232 C 192.9525 54.0793 193.3406 53.5469 193.9978 53.5469 C 194.066 53.5469 194.1155 53.5641 194.1743 53.5726 L 194.0706 54.5692 C 193.9789 54.5436 193.8875 54.5262 193.7762 54.5262 C 193.3411 54.5262 192.8353 54.7926 192.7494 55.6174 L 192.4967 58.0406 L 191.4382 58.0406 L 191.8243 54.3457 L 191.8243 54.3457 Z" fill="#ffffff"/>
			<path d="M 195.0693 55.7892 C 195.1614 54.9043 195.4264 54.3285 196.0149 54.3285 C 196.5952 54.3285 196.7688 54.9559 196.6794 55.8148 C 196.5919 56.6484 196.308 57.327 195.6855 57.327 C 195.0707 57.327 194.9625 56.8117 195.0693 55.7892 L 195.0693 55.7892 L 195.0693 55.7892 ZM 197.1191 51.5965 L 196.8425 54.2513 L 196.8253 54.2513 C 196.7074 53.9076 196.3954 53.5469 195.7642 53.5469 C 194.8169 53.5469 194.1576 54.3889 194.0065 55.8322 C 193.8783 57.0609 194.2213 58.109 195.3135 58.109 C 195.996 58.109 196.3513 57.7313 196.5618 57.3529 L 196.587 57.3529 C 196.5557 57.6537 196.5459 57.9115 196.5496 58.0406 L 197.5387 58.0406 C 197.5305 57.877 197.5508 57.6024 197.5836 57.2844 L 198.1771 51.5965 L 197.1191 51.5965 L 197.1191 51.5965 Z" fill="#ffffff"/>
		</g>
		<g>
			<path d="M 207.8895 74.283 C 207.2347 74.7596 206.325 75 205.1492 75 L 204.6107 75 C 204.1428 75 203.8477 74.6268 203.9531 74.1716 L 204.605 71.8262 C 204.7095 71.3726 205.1765 71 205.6431 71 L 206.3541 71 C 207.186 71 207.814 71.1407 208.2375 71.4234 C 208.6606 71.7019 208.8704 72.0068 208.8704 72.5875 C 208.8704 73.4736 208.5439 74.1556 207.8895 74.635 L 207.8895 74.283 ZM 212.5803 70.2863 C 212.3077 69.7626 211.9054 69.3345 211.3838 69.0081 C 210.8514 68.6772 210.2241 68.3359 209.4978 68.2017 C 208.7712 68.069 207.9187 68 206.9392 68 L 202.4055 68 C 201.9368 68 201.4713 68.3707 201.3682 68.8273 L 198.3013 82.1724 C 198.1952 82.6282 198.4921 83 198.9568 83 L 201.134 83 C 201.6012 83 202.0671 82.6282 202.1741 82.1724 L 202.9186 78.8278 C 203.0223 78.3743 203.4912 78 203.9559 78 L 204.5801 78 C 207.2332 78 209.2979 77.4568 210.7776 76.3663 C 212.2538 75.2742 212.9924 74.0288 212.9924 72.2494 C 212.9924 71.465 212.8557 70.8129 212.5803 70.2863 L 212.5803 70.2863 Z" fill="#326596"/>
			<path d="M 219.2151 80.1295 C 218.863 80.3848 218.4819 80.5939 218.0803 80.7588 C 217.6782 80.9236 217.3007 81.0068 216.948 81.0068 C 216.4073 81.0068 215.9946 80.9284 215.7119 80.7695 C 215.4304 80.6145 215.2877 80.3429 215.2877 79.9554 C 215.2877 79.516 215.3928 79.1606 215.6091 78.8926 C 215.8199 78.627 216.1321 78.4203 216.5331 78.2726 C 216.9282 78.1321 217.4032 78.0266 217.9624 77.9509 C 218.5227 77.8787 219.1224 77.8161 219.7637 77.761 L 219.2151 80.1295 L 219.2151 80.1295 ZM 218.5339 83 L 221.2642 83 C 221.7302 83 222.1991 82.6968 222.303 82.241 L 223.8866 75.3926 C 223.9255 75.2315 223.9576 75.0444 223.9785 74.8279 C 224.0018 74.614 224.0168 74.4397 224.0168 74.3086 C 224.0168 73.3353 223.6019 72.6191 222.7783 72.1584 C 221.9517 71.6953 220.6637 71.465 218.9025 71.465 C 218.0259 71.465 217.1495 71.5322 216.272 71.6668 C 215.3906 71.803 214.7412 71.9243 214.3203 72.0313 L 213.9514 73.8988 C 213.8618 74.3568 213.9374 74.7322 214.1201 74.7322 C 214.4763 74.6 215.0131 74.4338 215.7277 74.2314 C 216.4463 74.0303 217.0997 73.9288 217.6895 73.9288 C 218.5631 73.9288 219.2186 74.0229 219.6575 74.21 C 220.0957 74.3999 220.3174 74.7263 220.3174 75.1918 C 220.3174 75.3027 220.3029 75.4072 220.2847 75.4995 C 220.261 75.5901 220.2444 75.6581 220.2367 75.6986 C 218.9937 75.7724 217.8365 75.8856 216.7655 76.0404 C 215.7012 76.1938 214.7815 76.4454 214.0084 76.7939 C 213.1852 77.1647 212.5625 77.657 212.1425 78.2775 C 211.7236 78.8988 211.5128 79.653 211.5128 80.5448 C 211.5128 81.3892 211.8083 82.0769 212.3997 82.6022 C 212.9907 83.1285 213.755 83.3903 214.688 83.3903 C 215.2681 83.3903 215.7218 83.3491 216.0503 83.2683 C 216.3765 83.1854 216.7286 83.0656 217.0997 82.91 C 217.3733 82.7888 217.6727 82.6212 217.9929 82.4093 C 218.3114 82.1997 218.5872 82.0171 218.8137 81.8673 L 218.5339 83 L 218.5339 83 Z" fill="#326596"/>
			<path d="M 230.9583 68 L 227.8579 82.1716 C 227.7532 82.6268 227.2832 83 226.8179 83 L 224.8777 83 C 224.4122 83 224.1145 82.6268 224.2207 82.1716 L 227.1313 68.8269 C 227.236 68.3718 227.7051 68 228.1709 68 L 230.9583 68 L 230.9583 68 Z" fill="#326596"/>
			<path d="M 169.5669 74.281 C 168.9128 74.7589 168.0031 75 166.8281 75 L 166.2886 75 C 165.8213 75 165.5265 74.626 165.629 74.1709 L 166.2831 71.8266 C 166.3893 71.3715 166.8557 71 167.3213 71 L 168.0337 71 C 168.8644 71 169.4935 71.1411 169.916 71.4237 C 170.3379 71.7032 170.5496 72.0313 170.5496 72.615 C 170.5496 73.4981 170.2202 74.1801 169.5669 74.6582 L 169.5669 74.281 ZM 174.2581 70.3107 C 173.9838 69.787 173.584 69.3597 173.0627 69.0339 C 172.5291 68.7031 171.9019 68.3353 171.1757 68.2001 C 170.4475 68.0668 169.5962 68 168.6169 68 L 164.0842 68 C 163.6161 68 163.1504 68.3692 163.0442 68.8257 L 159.9796 82.1709 C 159.8741 82.6274 160.1697 83 160.6365 83 L 162.8132 83 C 163.2798 83 163.7471 82.6274 163.8514 82.1716 L 164.5974 78.8265 C 164.7029 78.3729 165.1686 78 165.636 78 L 166.2576 78 C 168.9108 78 170.9758 77.4562 172.4539 76.3648 C 173.9315 75.2747 174.6714 74.0543 174.6714 72.2738 C 174.6714 71.4908 174.5347 70.8374 174.2581 70.3107 L 174.2581 70.3107 Z" fill="#1a3663"/>
			<path d="M 180.8928 80.1544 C 180.5383 80.4089 180.16 80.6187 179.7581 80.7836 C 179.3542 80.9484 178.9792 81.0309 178.6235 81.0309 C 178.0865 81.0309 177.6741 80.9514 177.3894 80.7943 C 177.1074 80.6388 176.9678 80.3663 176.9678 79.978 C 176.9678 79.54 177.071 79.1836 177.2848 78.9174 C 177.4985 78.6525 177.8093 78.4444 178.2124 78.2962 C 178.6075 78.1576 179.0824 78.0492 179.6414 77.9759 C 180.2012 77.9028 180.8016 77.8397 181.4397 77.7858 L 180.8928 80.1544 L 180.8928 80.1544 ZM 180.2133 83 L 182.943 83 C 183.4087 83 183.8768 82.7216 183.9827 82.2657 L 185.5637 75.4177 C 185.6047 75.2556 185.6377 75.0685 185.6563 74.8527 C 185.6803 74.6394 185.6938 74.4652 185.6938 74.3334 C 185.6938 73.3601 185.2799 72.6446 184.4553 72.1825 C 183.6318 71.7187 182.3394 71.489 180.5781 71.489 C 179.7041 71.489 178.8275 71.5562 177.9497 71.6918 C 177.0663 71.8271 176.4161 71.9493 175.9998 72.0563 L 175.6298 73.9232 C 175.54 74.3801 175.6155 74.7562 175.7986 74.7562 C 176.1561 74.6248 176.6914 74.4568 177.4067 74.2563 C 178.1241 74.0543 178.7767 73.9532 179.3684 73.9532 C 180.2411 73.9532 180.8951 74.047 181.3369 74.2341 C 181.7758 74.424 181.9968 74.7505 181.9968 75.2173 C 181.9968 75.3284 181.9812 75.4313 181.9639 75.5226 C 181.9391 75.6163 181.9227 75.6821 181.9154 75.7235 C 180.6714 75.7965 179.5165 75.909 178.4454 76.0645 C 177.3789 76.2179 176.4603 76.4711 175.6865 76.818 C 174.8636 77.1895 174.2417 77.6826 173.8208 78.3022 C 173.3997 78.9232 173.1886 79.6777 173.1886 80.5688 C 173.1886 81.4149 173.4858 82.1018 174.0793 82.6263 C 174.6692 83.1519 175.4331 83.4167 176.366 83.4167 C 176.9458 83.4167 177.4004 83.3732 177.728 83.2924 C 178.0552 83.2091 178.4058 83.0919 178.7767 82.9338 C 179.051 82.8129 179.3505 82.6459 179.672 82.4333 C 179.9905 82.2224 180.2662 82.0426 180.4897 81.8907 L 180.2133 83 L 180.2133 83 Z" fill="#1a3663"/>
			<path d="M 196.7444 71 C 196.2797 71 195.6643 71.8469 195.3833 72.3016 L 191.5426 78.8922 L 190.4894 71.829 C 190.3846 71.3725 189.9164 71 189.4497 71 L 187.5109 71 C 187.0437 71 186.7463 71.3725 186.854 71.829 L 188.5334 83.1795 C 188.5641 83.4151 188.5947 83.615 188.6239 83.7803 L 186.533 87.1716 C 186.2528 87.6267 186.4022 88 186.8704 88 L 189.1193 88 C 189.5864 88 190.1965 87.1534 190.4781 86.6984 L 199.843 71 L 196.7444 71 L 196.7444 71 Z" fill="#1a3663"/>
		</g>
		<path opacity="0.502" d="M 55.5 117 C 56.3284 117 57 116.3284 57 115.5 L 57 105.5 C 57 104.6716 56.3284 104 55.5 104 L 42.5 104 C 41.6716 104 41 104.6716 41 105.5 L 41 115.5 C 41 116.3284 42.1713 117 42.9998 117 L 44 117 L 44 120 L 48.5 117 L 55.5 117 ZM 43 106 L 55 106 L 55 115 L 48.5 115 L 46 116.5 L 46 115 L 43 115 L 43 106 ZM 53 113 L 53 111 L 45 111 L 45 113 L 53 113 ZM 53 108 L 45 108 L 45 110 L 53 110 L 53 108 Z" fill="#091e5f"/>
		<path d="M 54.5 116 C 55.3284 116 56 115.3284 56 114.5 L 56 104.5 C 56 103.6716 55.3284 103 54.5 103 L 41.5 103 C 40.6716 103 40 103.6716 40 104.5 L 40 114.5 C 40 115.3284 41.1713 116 41.9998 116 L 43 116 L 43 119 L 47.5 116 L 54.5 116 ZM 42 105 L 54 105 L 54 114 L 47.5 114 L 45 115.5 L 45 114 L 42 114 L 42 105 ZM 52 112 L 52 110 L 44 110 L 44 112 L 52 112 ZM 52 107 L 44 107 L 44 109 L 52 109 L 52 107 Z" fill="#ffffff"/>
		<path opacity="0.502" d="M 53.5 194.5 L 51 192 L 49 193.5 L 47 192 L 44.5 194.5 L 43.5 193.5 L 46 191 L 43.5 188.5 L 44.5 187.5 L 49 192 L 53.5 187.5 L 54.5 188.5 L 52 191 L 54.5 193.5 L 53.5 194.5 ZM 55 197 C 56.1046 197 57 196.1045 57 195 L 57 187 C 57 185.8955 56.1046 185 55 185 L 43 185 C 41.8955 185 41 185.8955 41 187 L 41 195 C 41 196.1045 41.8955 197 43 197 L 55 197 Z" fill="#091e5f"/>
		<path d="M 52.5 193.5 L 50 191 L 48 192.5 L 46 191 L 43.5 193.5 L 42.5 192.5 L 45 190 L 42.5 187.5 L 43.5 186.5 L 48 191 L 52.5 186.5 L 53.5 187.5 L 51 190 L 53.5 192.5 L 52.5 193.5 ZM 54 196 C 55.1046 196 56 195.1045 56 194 L 56 186 C 56 184.8955 55.1046 184 54 184 L 42 184 C 40.8955 184 40 184.8955 40 186 L 40 194 C 40 195.1045 40.8955 196 42 196 L 54 196 Z" fill="#ffffff"/>
		<path opacity="0.502" d="M 56.8306 167.3208 C 56.9718 167.4932 57.0248 167.6997 56.9894 167.9408 L 56.3186 171.5654 C 56.295 171.7607 55.7069 172 55.5067 172 L 46 172 L 46 173 L 55.3198 173 C 55.5435 173 55.2712 173.0775 55.4362 173.2325 C 55.6008 173.3876 55.6832 174.0154 55.6832 174.245 C 55.6832 174.4746 55.6008 174.6124 55.4362 174.7675 C 55.2712 174.9225 55.0773 175 54.8536 175 L 44.5453 175 C 44.2982 175 44.157 172.0083 44.157 172.0083 L 43.4862 165.1677 L 41.58 164.582 C 41.3563 164.5132 41.1945 164.3811 41.0945 164.186 C 40.9945 163.9907 40.9738 163.7839 41.0327 163.5659 C 41.1031 163.3477 41.2416 163.1898 41.4476 163.0922 C 41.6534 162.9946 41.8623 162.9745 42.0741 163.0319 L 44.51 163.7898 C 44.663 163.8357 44.7147 163.9219 44.8146 164.0481 C 44.9148 164.1744 44.9764 164.318 45 164.4788 L 45 165.7878 L 56.0497 166.9935 C 56.2969 167.028 56.701 167.137 56.8306 167.3208 L 56.8306 167.3208 ZM 45.7985 175.5024 C 46.1516 175.5024 46.4517 175.623 46.6986 175.8641 C 46.9458 176.1052 47.0695 176.3981 47.0695 176.7426 C 47.0695 177.0872 46.9458 177.3828 46.6986 177.6296 C 46.4517 177.8766 46.1516 178 45.7985 178 C 45.4456 178 45.1454 177.8766 44.8983 177.6296 C 44.6511 177.3828 44.5277 177.0872 44.5277 176.7426 C 44.5277 176.3981 44.6511 176.1052 44.8983 175.8641 C 45.1454 175.623 45.4456 175.5024 45.7985 175.5024 L 45.7985 175.5024 ZM 53.3356 175.5024 C 53.6886 175.5024 53.9886 175.623 54.236 175.8641 C 54.4829 176.1052 54.6066 176.3981 54.6066 176.7426 C 54.6066 177.0872 54.4829 177.3828 54.236 177.6296 C 53.9886 177.8766 53.6886 178 53.3356 178 C 52.9827 178 52.6825 177.8766 52.4354 177.6296 C 52.1882 177.3828 52.0647 177.0872 52.0647 176.7426 C 52.0647 176.3981 52.1882 176.1052 52.4354 175.8641 C 52.6825 175.623 52.9827 175.5024 53.3356 175.5024 L 53.3356 175.5024 ZM 53.3356 175.5024 L 53.3356 175.5024 Z" fill="#f15a29"/>
		<path d="M 55.8306 166.3208 C 55.9718 166.4932 56.0248 166.6997 55.9894 166.9408 L 55.3186 170.5654 C 55.295 170.7607 54.7069 171 54.5067 171 L 45 171 L 45 172 L 54.3198 172 C 54.5435 172 54.2712 172.0775 54.4362 172.2325 C 54.6008 172.3876 54.6832 173.0154 54.6832 173.245 C 54.6832 173.4746 54.6008 173.6124 54.4362 173.7675 C 54.2712 173.9225 54.0773 174 53.8536 174 L 43.5453 174 C 43.2982 174 43.157 171.0083 43.157 171.0083 L 42.4862 164.1677 L 40.58 163.582 C 40.3563 163.5132 40.1945 163.3811 40.0945 163.186 C 39.9945 162.9907 39.9738 162.7839 40.0327 162.5659 C 40.1031 162.3477 40.2416 162.1898 40.4476 162.0922 C 40.6534 161.9946 40.8623 161.9745 41.0741 162.0319 L 43.51 162.7898 C 43.663 162.8357 43.7147 162.9219 43.8146 163.0481 C 43.9148 163.1744 43.9764 163.318 44 163.4788 L 44 164.7878 L 55.0497 165.9935 C 55.2969 166.028 55.701 166.137 55.8306 166.3208 L 55.8306 166.3208 ZM 44.7985 174.5024 C 45.1516 174.5024 45.4517 174.623 45.6986 174.8641 C 45.9458 175.1052 46.0695 175.3981 46.0695 175.7426 C 46.0695 176.0872 45.9458 176.3828 45.6986 176.6296 C 45.4517 176.8766 45.1516 177 44.7985 177 C 44.4456 177 44.1454 176.8766 43.8983 176.6296 C 43.6511 176.3828 43.5277 176.0872 43.5277 175.7426 C 43.5277 175.3981 43.6511 175.1052 43.8983 174.8641 C 44.1454 174.623 44.4456 174.5024 44.7985 174.5024 L 44.7985 174.5024 ZM 52.3356 174.5024 C 52.6886 174.5024 52.9886 174.623 53.236 174.8641 C 53.4829 175.1052 53.6066 175.3981 53.6066 175.7426 C 53.6066 176.0872 53.4829 176.3828 53.236 176.6296 C 52.9886 176.8766 52.6886 177 52.3356 177 C 51.9827 177 51.6825 176.8766 51.4354 176.6296 C 51.1882 176.3828 51.0647 176.0872 51.0647 175.7426 C 51.0647 175.3981 51.1882 175.1052 51.4354 174.8641 C 51.6825 174.623 51.9827 174.5024 52.3356 174.5024 L 52.3356 174.5024 ZM 52.3356 174.5024 L 52.3356 174.5024 Z" fill="#ffffff"/>
		<path d="M 48 298 C 52.4183 298 56 294.4183 56 290 C 56 285.5818 52.4183 282 48 282 C 43.5817 282 40 285.5818 40 290 C 40 294.4183 43.5817 298 48 298 ZM 48 284 C 51.3137 284 54 286.6863 54 290 C 54 293.3137 51.3137 296 48 296 C 44.6863 296 42 293.3137 42 290 C 42 286.6863 44.6863 284 48 284 ZM 48.0469 291.1765 L 48.0469 290.8677 C 48.0469 290.7573 48.0547 290.6617 48.0781 290.5809 C 48.0938 290.5 48.1328 290.4191 48.1875 290.3456 C 48.2422 290.2721 48.3203 290.1912 48.4141 290.1029 C 48.5078 290.0146 48.6328 289.9191 48.7891 289.8015 C 48.9922 289.6544 49.1641 289.5073 49.3203 289.3677 C 49.4688 289.2354 49.5938 289.0883 49.6953 288.9412 C 49.7891 288.7941 49.8672 288.6396 49.9219 288.4706 C 49.9688 288.3015 50 288.1029 50 287.8823 C 50 287.5883 49.9375 287.3235 49.8203 287.0883 C 49.7031 286.8604 49.5313 286.6617 49.3125 286.5 C 49.0938 286.3383 48.8203 286.2206 48.5078 286.1323 C 48.1875 286.0441 47.8281 286 47.4375 286 C 47.2266 286 47.0156 286.0221 46.7969 286.0588 C 46.5781 286.0956 46.3594 286.1471 46.1484 286.2059 C 45.9375 286.2721 45.7344 286.3456 45.5391 286.4265 C 45.3438 286.5146 45.1641 286.6029 45 286.6912 L 45.5938 287.9044 C 45.9219 287.75 46.2344 287.6177 46.5469 287.5146 C 46.8594 287.4117 47.1484 287.3529 47.4141 287.3529 C 47.7188 287.3529 47.9453 287.4117 48.0938 287.5221 C 48.2422 287.6396 48.3203 287.7794 48.3203 287.9559 C 48.3203 288.0883 48.3047 288.1985 48.2734 288.2941 C 48.2422 288.3971 48.1953 288.4854 48.1328 288.5735 C 48.0703 288.6617 47.9844 288.75 47.875 288.8383 L 47.4844 289.1471 C 47.3125 289.2794 47.1641 289.4044 47.0391 289.5221 C 46.9141 289.6471 46.8125 289.7721 46.7344 289.9044 C 46.6563 290.0367 46.5938 290.1691 46.5547 290.3162 C 46.5156 290.4633 46.5 290.6177 46.5 290.7941 L 46.5 291.1765 L 48.0469 291.1765 ZM 46.5781 293.4854 C 46.625 293.6029 46.6953 293.7059 46.7891 293.7794 C 46.8828 293.8604 46.9844 293.9191 47.1094 293.9485 C 47.2344 293.9854 47.3672 294 47.5078 294 C 47.6406 294 47.7656 293.9854 47.8906 293.9485 C 48.0078 293.9191 48.1094 293.8604 48.2031 293.7794 C 48.2969 293.7059 48.3672 293.6029 48.4219 293.4854 C 48.4688 293.3677 48.5 293.2279 48.5 293.0588 C 48.5 292.8896 48.4688 292.7427 48.4219 292.625 C 48.3672 292.5073 48.2969 292.4044 48.2031 292.3309 C 48.1094 292.2573 48.0078 292.2059 47.8906 292.1691 C 47.7656 292.1396 47.6406 292.1177 47.5078 292.1177 C 47.3672 292.1177 47.2344 292.1396 47.1094 292.1691 C 46.9844 292.2059 46.8828 292.2573 46.7891 292.3309 C 46.6953 292.4044 46.625 292.5073 46.5781 292.625 C 46.5234 292.7427 46.5 292.8896 46.5 293.0588 C 46.5 293.2279 46.5234 293.3677 46.5781 293.4854 Z" fill="#c3c3c3"/>
		<path d="M 54.5 136 C 55.3284 136 56 135.3284 56 134.5 L 56 124.5 C 56 123.6716 55.3284 123 54.5 123 L 41.5 123 C 40.6716 123 40 123.6716 40 124.5 L 40 134.5 C 40 135.3284 41.1713 136 41.9997 136 L 43 136 L 43 139 L 47.5 136 L 54.5 136 ZM 42 125 L 54 125 L 54 134 L 47.5 134 L 45 135.5 L 45 134 L 42 134 L 42 125 ZM 51.9999 132 L 51.9999 130 L 44 130 L 44 132 L 51.9999 132 ZM 51.9999 127 L 44 127 L 44 129 L 51.9999 129 L 51.9999 127 Z" fill="#c3c3c3"/>
		<path d="M 52.5 213.5 L 50 211 L 48 212.5 L 46 211 L 43.5 213.5 L 42.5 212.5 L 45 210 L 42.5 207.5 L 43.5 206.5 L 48 211 L 52.5 206.5 L 53.5 207.5 L 51 210 L 53.5 212.5 L 52.5 213.5 ZM 54 216 C 55.1046 216 56 215.1045 56 214 L 56 206 C 56 204.8955 55.1046 204 54 204 L 42 204 C 40.8954 204 40 204.8955 40 206 L 40 214 C 40 215.1045 40.8954 216 42 216 L 54 216 Z" fill="#c3c3c3"/>
		<path opacity="0.502" d="M 49 279 C 53.4183 279 57 275.4183 57 271 C 57 266.5818 53.4183 263 49 263 C 44.5817 263 41 266.5818 41 271 C 41 275.4183 44.5817 279 49 279 ZM 49 265 C 52.3137 265 55 267.6863 55 271 C 55 274.3137 52.3137 277 49 277 C 45.6863 277 43 274.3137 43 271 C 43 267.6863 45.6863 265 49 265 ZM 49.0469 272.1765 L 49.0469 271.8677 C 49.0469 271.7573 49.0547 271.6617 49.0781 271.5809 C 49.0938 271.5 49.1328 271.4191 49.1875 271.3456 C 49.2422 271.2721 49.3203 271.1912 49.4141 271.1029 C 49.5078 271.0146 49.6328 270.9191 49.7891 270.8015 C 49.9922 270.6544 50.1641 270.5073 50.3203 270.3677 C 50.4688 270.2354 50.5938 270.0883 50.6953 269.9412 C 50.7891 269.7941 50.8672 269.6396 50.9219 269.4706 C 50.9688 269.3015 51 269.1029 51 268.8823 C 51 268.5883 50.9375 268.3235 50.8203 268.0883 C 50.7031 267.8604 50.5313 267.6617 50.3125 267.5 C 50.0938 267.3383 49.8203 267.2206 49.5078 267.1323 C 49.1875 267.0441 48.8281 267 48.4375 267 C 48.2266 267 48.0156 267.0221 47.7969 267.0588 C 47.5781 267.0956 47.3594 267.1471 47.1484 267.2059 C 46.9375 267.2721 46.7344 267.3456 46.5391 267.4265 C 46.3438 267.5146 46.1641 267.6029 46 267.6912 L 46.5938 268.9044 C 46.9219 268.75 47.2344 268.6177 47.5469 268.5146 C 47.8594 268.4117 48.1484 268.3529 48.4141 268.3529 C 48.7188 268.3529 48.9453 268.4117 49.0938 268.5221 C 49.2422 268.6396 49.3203 268.7794 49.3203 268.9559 C 49.3203 269.0883 49.3047 269.1985 49.2734 269.2941 C 49.2422 269.3971 49.1953 269.4854 49.1328 269.5735 C 49.0703 269.6617 48.9844 269.75 48.875 269.8383 L 48.4844 270.1471 C 48.3125 270.2794 48.1641 270.4044 48.0391 270.5221 C 47.9141 270.6471 47.8125 270.7721 47.7344 270.9044 C 47.6563 271.0367 47.5938 271.1691 47.5547 271.3162 C 47.5156 271.4633 47.5 271.6177 47.5 271.7941 L 47.5 272.1765 L 49.0469 272.1765 ZM 47.5781 274.4854 C 47.625 274.6029 47.6953 274.7059 47.7891 274.7794 C 47.8828 274.8604 47.9844 274.9191 48.1094 274.9485 C 48.2344 274.9854 48.3672 275 48.5078 275 C 48.6406 275 48.7656 274.9854 48.8906 274.9485 C 49.0078 274.9191 49.1094 274.8604 49.2031 274.7794 C 49.2969 274.7059 49.3672 274.6029 49.4219 274.4854 C 49.4688 274.3677 49.5 274.2279 49.5 274.0588 C 49.5 273.8896 49.4688 273.7427 49.4219 273.625 C 49.3672 273.5073 49.2969 273.4044 49.2031 273.3309 C 49.1094 273.2573 49.0078 273.2059 48.8906 273.1691 C 48.7656 273.1396 48.6406 273.1177 48.5078 273.1177 C 48.3672 273.1177 48.2344 273.1396 48.1094 273.1691 C 47.9844 273.2059 47.8828 273.2573 47.7891 273.3309 C 47.6953 273.4044 47.625 273.5073 47.5781 273.625 C 47.5234 273.7427 47.5 273.8896 47.5 274.0588 C 47.5 274.2279 47.5234 274.3677 47.5781 274.4854 Z" fill="#091e5f"/>
		<path d="M 48 278 C 52.4183 278 56 274.4183 56 270 C 56 265.5818 52.4183 262 48 262 C 43.5817 262 40 265.5818 40 270 C 40 274.4183 43.5817 278 48 278 ZM 48 264 C 51.3137 264 54 266.6863 54 270 C 54 273.3137 51.3137 276 48 276 C 44.6863 276 42 273.3137 42 270 C 42 266.6863 44.6863 264 48 264 ZM 48.0469 271.1765 L 48.0469 270.8677 C 48.0469 270.7573 48.0547 270.6617 48.0781 270.5809 C 48.0938 270.5 48.1328 270.4191 48.1875 270.3456 C 48.2422 270.2721 48.3203 270.1912 48.4141 270.1029 C 48.5078 270.0146 48.6328 269.9191 48.7891 269.8015 C 48.9922 269.6544 49.1641 269.5073 49.3203 269.3677 C 49.4688 269.2354 49.5938 269.0883 49.6953 268.9412 C 49.7891 268.7941 49.8672 268.6396 49.9219 268.4706 C 49.9688 268.3015 50 268.1029 50 267.8823 C 50 267.5883 49.9375 267.3235 49.8203 267.0883 C 49.7031 266.8604 49.5313 266.6617 49.3125 266.5 C 49.0938 266.3383 48.8203 266.2206 48.5078 266.1323 C 48.1875 266.0441 47.8281 266 47.4375 266 C 47.2266 266 47.0156 266.0221 46.7969 266.0588 C 46.5781 266.0956 46.3594 266.1471 46.1484 266.2059 C 45.9375 266.2721 45.7344 266.3456 45.5391 266.4265 C 45.3438 266.5146 45.1641 266.6029 45 266.6912 L 45.5938 267.9044 C 45.9219 267.75 46.2344 267.6177 46.5469 267.5146 C 46.8594 267.4117 47.1484 267.3529 47.4141 267.3529 C 47.7188 267.3529 47.9453 267.4117 48.0938 267.5221 C 48.2422 267.6396 48.3203 267.7794 48.3203 267.9559 C 48.3203 268.0883 48.3047 268.1985 48.2734 268.2941 C 48.2422 268.3971 48.1953 268.4854 48.1328 268.5735 C 48.0703 268.6617 47.9844 268.75 47.875 268.8383 L 47.4844 269.1471 C 47.3125 269.2794 47.1641 269.4044 47.0391 269.5221 C 46.9141 269.6471 46.8125 269.7721 46.7344 269.9044 C 46.6563 270.0367 46.5938 270.1691 46.5547 270.3162 C 46.5156 270.4633 46.5 270.6177 46.5 270.7941 L 46.5 271.1765 L 48.0469 271.1765 ZM 46.5781 273.4854 C 46.625 273.6029 46.6953 273.7059 46.7891 273.7794 C 46.8828 273.8604 46.9844 273.9191 47.1094 273.9485 C 47.2344 273.9854 47.3672 274 47.5078 274 C 47.6406 274 47.7656 273.9854 47.8906 273.9485 C 48.0078 273.9191 48.1094 273.8604 48.2031 273.7794 C 48.2969 273.7059 48.3672 273.6029 48.4219 273.4854 C 48.4688 273.3677 48.5 273.2279 48.5 273.0588 C 48.5 272.8896 48.4688 272.7427 48.4219 272.625 C 48.3672 272.5073 48.2969 272.4044 48.2031 272.3309 C 48.1094 272.2573 48.0078 272.2059 47.8906 272.1691 C 47.7656 272.1396 47.6406 272.1177 47.5078 272.1177 C 47.3672 272.1177 47.2344 272.1396 47.1094 272.1691 C 46.9844 272.2059 46.8828 272.2573 46.7891 272.3309 C 46.6953 272.4044 46.625 272.5073 46.5781 272.625 C 46.5234 272.7427 46.5 272.8896 46.5 273.0588 C 46.5 273.2279 46.5234 273.3677 46.5781 273.4854 Z" fill="#ffffff"/>
		<path opacity="0.502" d="M 55.5 97 C 56.3284 97 57 96.3284 57 95.5 L 57 85.5 C 57 84.6716 56.3284 84 55.5 84 L 42.5 84 C 41.6716 84 41 84.6716 41 85.5 L 41 95.5 C 41 96.3284 42.1713 97 42.9997 97 L 44 97 L 44 100 L 48.5 97 L 55.5 97 ZM 43 86 L 55 86 L 55 95 L 48.5 95 L 46 96.5 L 46 95 L 43 95 L 43 86 Z" fill="#091e5f"/>
		<path d="M 54.5 96 C 55.3284 96 56 95.3284 56 94.5 L 56 84.5 C 56 83.6716 55.3284 83 54.5 83 L 41.5 83 C 40.6716 83 40 83.6716 40 84.5 L 40 94.5 C 40 95.3284 41.1713 96 41.9997 96 L 43 96 L 43 99 L 47.5 96 L 54.5 96 ZM 42 85 L 54 85 L 54 94 L 47.5 94 L 45 95.5 L 45 94 L 42 94 L 42 85 Z" fill="#ffffff"/>
		<g>
			<path d="M 177.4667 41 L 180.0484 26 L 184.1775 26 L 181.5941 41 L 177.4667 41 Z" fill="#00569f"/>
			<path d="M 196.5699 26.151 C 195.7517 25.8369 194.4699 25.5 192.8691 25.5 C 188.7892 25.5 185.915 27.6023 185.8907 30.6154 C 185.8677 32.8427 187.9424 34.0851 189.5087 34.8266 C 191.1158 35.5863 191.6562 36.0709 191.6486 36.7494 C 191.6384 37.7883 190.3651 38.2631 189.1783 38.2631 C 187.5256 38.2631 186.6476 38.0282 185.2916 37.4494 L 184.7595 37.2029 L 184.18 40.673 C 185.1445 41.1057 186.9279 41.4805 188.7795 41.5 C 193.1199 41.5 195.9376 39.4218 195.9697 36.2043 C 195.9852 34.4409 194.8851 33.099 192.5029 31.9927 C 191.0597 31.2756 190.1758 30.7972 190.1851 30.0711 C 190.1851 29.4268 190.9333 28.7378 192.5497 28.7378 C 193.9 28.7163 194.878 29.0176 195.6401 29.3317 L 196.0101 29.5106 L 196.5699 26.151 L 196.5699 26.151 Z" fill="#00569f"/>
			<path d="M 207.158 26 L 203.9673 26 C 202.9789 26 202.2393 25.7852 201.8051 26.7946 L 195.6729 41 L 200.0087 41 C 200.0087 41 200.7178 39.0899 200.8782 38.6706 C 201.352 38.6706 205.564 38.6773 206.1661 38.6773 C 206.2897 39.2198 206.6686 41 206.6686 41 L 210.5 41 L 207.158 25.725 L 207.158 26 ZM 202.0664 36 C 202.4079 35.1069 203.7115 31.667 203.7115 31.667 C 203.6871 31.7082 204.0504 30.5446 204.259 29.9626 L 204.5381 31.524 C 204.5381 31.524 205.3287 35.224 205.494 36 L 202.0664 36 Z" fill="#00569f"/>
			<path d="M 174.0036 26 L 169.9611 36.351 L 169.5303 34.2029 C 168.7778 31.7265 166.433 28.787 163.8117 27.4439 L 167.5081 41 L 171.8768 41 L 178.3774 26 L 174.0036 26 L 174.0036 26 Z" fill="#00569f"/>
			<path d="M 166.2109 26 L 159.5527 26 L 159.5 26.0936 C 164.6801 27.3767 168.1076 30.4774 169.5303 34.2029 L 168.0825 27.0798 C 167.8326 26.0982 167.1077 26.0342 166.2109 26 L 166.2109 26 Z" fill="#f9a519"/>
		</g>
		<path d="M 63 109.9915 L 63 108.5824 L 64.2045 108.5824 C 64.1424 108.2723 64.0963 107.7834 64.1377 107.3958 L 63 107.3958 L 63 105.9719 L 64.4745 105.9719 C 65.3676 102.9971 68.146 101 71.5591 101 C 72.7382 101 73.7725 101.2501 73.7725 101.2328 L 73.1312 103.4467 C 73.1312 103.4467 72.3451 103.2397 71.497 103.2397 C 69.5319 103.2397 68.0012 104.2968 67.3392 105.9719 L 72.6141 105.9719 L 72.3038 107.3958 L 66.9667 107.3958 C 66.9044 107.764 66.9252 108.1949 66.9876 108.5824 L 72.0349 108.5824 L 71.7246 110.0063 L 67.4427 110.0063 C 68.1046 111.6243 69.6974 112.6713 71.6005 112.6713 C 72.6348 112.6713 73.5035 112.3974 73.5035 112.3974 L 74 114.6553 C 74 114.6553 72.945 115 71.5591 115 C 68.0219 115 65.326 112.9584 64.4745 110.0063 C 64.4745 110.0063 64.4745 109.9915 63 109.9915 ZM 70 96 C 63.3727 96 58 101.3724 58 108 C 58 114.6276 63.3727 120 70 120 C 76.6273 120 82 114.6276 82 108 C 82 101.3724 76.6273 96 70 96 Z" fill="#c3c3c3"/>
		<path d="M 61 153 L 58 156 L 67 165 L 82 150 L 79 147 L 67 159 L 61 153 Z" fill="#c3c3c3"/>
		<path d="M 70 216 C 63.3727 216 58 221.3723 58 228 C 58 234.6277 63.3727 240 70 240 C 76.6273 240 82 234.6277 82 228 C 82 221.3723 76.6273 216 70 216 ZM 71.54 219.7168 C 72.0205 219.7148 72.401 219.9001 72.6455 220.1902 C 72.8914 220.4792 73.0035 220.8601 73.0035 221.2507 C 73.0035 222.2634 72.1992 223.2217 71.0764 223.2253 C 71.067 223.2253 71.0573 223.2253 71.0479 223.2253 C 70.1676 223.2253 69.6182 222.572 69.6119 221.6213 C 69.6136 220.8025 70.2721 219.722 71.54 219.7168 ZM 72.9932 233.1689 C 71.3148 235.0017 69.2448 236.0955 68.457 236.1055 C 68.4553 236.1055 68.4537 236.1055 68.4521 236.1055 C 68.1853 236.1055 67.9088 236.0348 67.7083 235.8171 C 67.5072 235.5979 67.4031 235.2639 67.4031 234.7871 C 67.4031 234.4226 67.4633 233.6348 67.5996 233.0654 L 68.8037 227.8785 C 68.8619 227.5891 68.8943 227.3857 68.8962 227.281 C 68.6877 227.3562 67.7721 228.0266 67.3199 228.3782 L 67.1602 228.4978 L 66.6914 227.2249 L 66.7832 227.1396 C 68.4775 225.5725 70.5137 224.3171 71.4475 224.3054 C 71.7141 224.301 71.9467 224.4375 72.0717 224.6575 C 72.1998 224.8748 72.2502 225.157 72.2502 225.4961 C 72.2502 225.8662 72.1881 226.6387 72.0726 227.1396 L 70.7516 232.5159 C 70.6887 232.7744 70.6633 232.9631 70.6633 233.0828 C 70.6627 233.15 70.6721 233.1941 70.6787 233.2146 C 70.8196 233.1975 71.7574 232.5544 72.3645 231.9958 L 72.5081 231.8655 L 73.009 232.9648 L 73.0793 233.0725 L 72.9932 233.1689 Z" fill="#c3c3c3"/>
		<path d="M 66.8635 137.6107 C 66.8635 137.5795 66.8552 137.5518 66.8546 137.5192 C 66.8049 136.3366 65.8488 135.3917 64.6604 135.3889 C 63.4754 135.3917 62.5151 136.3366 62.4676 137.5192 C 62.4669 137.5518 62.4579 137.5795 62.4579 137.6107 C 62.4579 138.8362 63.4444 139.827 64.6604 139.8298 C 65.8771 139.827 66.8635 138.8362 66.8635 137.6107 ZM 63.9551 137.6107 C 63.9551 137.5781 63.9689 137.5518 63.9731 137.5192 C 64.0214 137.1711 64.3047 136.8984 64.6604 136.8984 C 65.0174 136.8984 65.3015 137.1711 65.3483 137.5192 C 65.3525 137.5518 65.3669 137.5781 65.3669 137.6107 C 65.3662 138.0003 65.0491 138.3196 64.6604 138.3196 C 64.2709 138.3196 63.9558 138.0003 63.9551 137.6107 ZM 79.8589 137.6107 C 79.8589 137.5885 79.852 137.5684 79.852 137.5462 C 79.8175 136.3512 78.8518 135.3917 77.6558 135.3889 C 76.4591 135.3917 75.4933 136.3512 75.4596 137.5462 L 75.4541 137.6107 C 75.4541 138.8362 76.4398 139.827 77.6558 139.8298 C 78.8725 139.827 79.8589 138.8362 79.8589 137.6107 ZM 76.9499 137.6107 C 76.9499 137.5878 76.9609 137.569 76.9637 137.5462 C 76.9968 137.1851 77.2897 136.8984 77.6558 136.8984 C 78.0225 136.8984 78.3141 137.1851 78.3486 137.5462 C 78.3513 137.569 78.363 137.5878 78.363 137.6107 C 78.361 138.0003 78.0453 138.3196 77.6558 138.3196 C 77.2663 138.3196 76.9506 138.0003 76.9499 137.6107 ZM 58 136.097 C 58 136.2539 58.0648 136.7166 58.1744 136.8264 C 58.2826 136.9388 58.4349 137 58.59 137 L 61.719 137 C 61.7679 135.4009 63.0604 134.429 64.6611 134.4276 C 66.261 134.429 67.5549 135.4016 67.6031 137 L 73.1875 137 C 73.2323 137.009 73.277 137 73.324 137 L 74.7103 137 C 74.7447 135.3877 76.0448 134.3749 77.6537 134.3735 C 79.2654 134.3749 80.5668 135.3877 80.6013 137 L 81.1694 137 C 81.3871 137 81.603 136.9118 81.7567 136.7556 C 81.9117 136.6008 82 136.1005 82 135.881 L 82 133.2959 C 81.9814 132.7981 81.7601 132.5419 81.5836 132.3239 C 81.201 131.8969 80.6599 131.5336 80.3139 131.3025 C 80.2587 130.5685 80.0726 129.8233 79.6763 128.9935 C 79.2186 128.0125 78.2858 126.9979 76.8679 127 L 73 127 L 73 124.731 C 73 124.5746 72.9365 124.2832 72.8263 124.1729 C 72.7166 124.0632 73.0565 124 72.9 124 L 58.59 124 C 58.4356 124 58.2826 124.0618 58.1724 124.1729 C 58.0627 124.2832 58 124.4353 58 124.5916 L 58 136.097 ZM 75 129 L 76.8357 129 C 77.403 129.0028 77.8178 129.3712 78.1817 130.0801 C 78.4754 130.6766 78.6229 131.448 78.6553 132 L 75 132 L 75 129 ZM 60 126 L 71 126 L 71 133 L 60 133 L 60 126 Z" fill="#c3c3c3"/>
		<path d="M 81 203 L 81 210 C 81 211.1046 80.1046 212 79 212 L 61 212 C 59.8954 212 59 211.1046 59 210 L 59 203 L 81 203 ZM 61 196 L 79 196 C 80.1046 196 81 196.8954 81 198 L 81 199 L 59 199 L 59 198 C 59 196.8954 59.8954 196 61 196 ZM 61 195 C 59.3431 195 58 196.3431 58 198 L 58 199 L 58 203 L 58 210 C 58 211.6569 59.3431 213 61 213 L 79 213 C 80.6569 213 82 211.6569 82 210 L 82 203 L 82 199 L 82 198 C 82 196.3431 80.6569 195 79 195 L 61 195 ZM 74 207 L 74 208 L 77 208 L 77 207 L 74 207 ZM 70 207 L 70 208 L 73 208 L 73 207 L 70 207 ZM 66 207 L 66 208 L 69 208 L 69 207 L 66 207 ZM 61 207 L 61 208 L 64 208 L 64 207 L 61 207 ZM 61 209 L 61 210 L 73 210 L 73 209 L 61 209 Z" fill="#c3c3c3"/>
		<g>
			<path d="M 75.3789 179.0229 C 75.5352 178.8667 75.5352 178.6089 75.3789 178.457 L 74.5234 177.6021 C 74.3672 177.4409 74.1094 177.4409 73.9531 177.6021 L 68.832 182.7266 L 66.395 180.2695 C 66.2339 180.1133 65.98 180.1133 65.8242 180.2695 L 64.9688 181.125 C 64.812 181.2813 64.812 181.5352 64.9688 181.6953 L 67.6802 184.4219 L 67.688 184.4375 L 68.4141 185.1641 L 68.543 185.2891 C 68.6992 185.4453 68.9531 185.4453 69.1089 185.2891 L 75.3789 179.0229 ZM 66.4059 173.0081 C 66.0739 173.0081 66 173.187 66 173.4141 L 66 175 L 75 175 L 75 173.207 C 75 172.98 74.7266 173 74.3984 173 L 73 173 L 73 168.625 C 71.144 167.3042 68 168.5659 68 168.5659 L 68 173 L 66.4059 173.0081 ZM 77.3906 170 L 74 170 L 74 172 L 76.4922 172 C 76.9219 172 77 172.3477 77 172.7769 L 77 189.2227 C 77 189.6523 76.6523 190 76.2227 190 L 63.7808 190 C 63.3467 190 63 189.6523 63 189.2227 L 63 172.7769 C 63 172.3477 63.3467 172 63.7808 172 L 67 172 L 67 170 L 63.0591 170 C 62.1992 170 61 170.6958 61 171.5591 L 61 190.4453 C 61 191.3047 61.6992 192 62.5591 192 L 77.3906 192 C 78.25 192 79 191.3047 79 190.4453 L 79 171.082 C 79 170.2188 78.25 170 77.3906 170 Z" fill="#c3c3c3"/>
		</g>
		<path d="M 54.5 156 C 55.3284 156 56 155.3284 56 154.5 L 56 144.5 C 56 143.6716 55.3284 143 54.5 143 L 41.5 143 C 40.6716 143 40 143.6716 40 144.5 L 40 154.5 C 40 155.3284 41.1713 156 41.9998 156 L 43 156 L 43 159 L 47.5 156 L 54.5 156 ZM 42 145 L 54 145 L 54 154 L 47.5 154 L 45 155.5 L 45 154 L 42 154 L 42 145 ZM 52 152 L 52 150 L 44 150 L 44 152 L 52 152 ZM 52 147 L 44 147 L 44 149 L 52 149 L 52 147 Z" fill="#3fb219"/>
		<g>
			<g>
				<path d="M 86 98 L 88 98 L 88 100 L 86 100 L 86 98 Z" fill="#f15a29"/>
				<path d="M 86 102 L 88 102 L 88 104 L 86 104 L 86 102 Z" fill="#f15a29"/>
				<path d="M 86 106 L 88 106 L 88 108 L 86 108 L 86 106 Z" fill="#f15a29"/>
				<path d="M 86 110 L 88 110 L 88 112 L 86 112 L 86 110 Z" fill="#f15a29"/>
			</g>
			<g>
				<path d="M 90 98 L 108 98 L 108 100 L 90 100 L 90 98 Z" fill="#f15a29"/>
				<path d="M 90 102 L 108 102 L 108 104 L 90 104 L 90 102 Z" fill="#f15a29"/>
				<path d="M 90 106 L 108 106 L 108 108 L 90 108 L 90 106 Z" fill="#f15a29"/>
				<path d="M 90 110 L 108 110 L 108 112 L 90 112 L 90 110 Z" fill="#f15a29"/>
			</g>
		</g>
		<g>
			<g>
				<path d="M 86 68 L 88 68 L 88 70 L 86 70 L 86 68 Z" fill="#c3c3c3"/>
				<path d="M 86 72 L 88 72 L 88 74 L 86 74 L 86 72 Z" fill="#c3c3c3"/>
				<path d="M 86 76 L 88 76 L 88 78 L 86 78 L 86 76 Z" fill="#c3c3c3"/>
				<path d="M 86 80 L 88 80 L 88 82 L 86 82 L 86 80 Z" fill="#c3c3c3"/>
			</g>
			<g>
				<path d="M 90 68 L 108 68 L 108 70 L 90 70 L 90 68 Z" fill="#c3c3c3"/>
				<path d="M 90 72 L 108 72 L 108 74 L 90 74 L 90 72 Z" fill="#c3c3c3"/>
				<path d="M 90 76 L 108 76 L 108 78 L 90 78 L 90 76 Z" fill="#c3c3c3"/>
				<path d="M 90 80 L 108 80 L 108 82 L 90 82 L 90 80 Z" fill="#c3c3c3"/>
			</g>
		</g>
		<g>
			<g>
				<path d="M 86 46 L 92 46 L 92 52 L 86 52 L 86 46 Z" fill="#f15a29"/>
				<path d="M 94 46 L 100 46 L 100 52 L 94 52 L 94 46 Z" fill="#f15a29"/>
				<path d="M 102 46 L 108 46 L 108 52 L 102 52 L 102 46 Z" fill="#f15a29"/>
				<path d="M 86 38 L 92 38 L 92 44 L 86 44 L 86 38 Z" fill="#f15a29"/>
				<path d="M 94 38 L 100 38 L 100 44 L 94 44 L 94 38 Z" fill="#f15a29"/>
				<path d="M 102 38 L 108 38 L 108 44 L 102 44 L 102 38 Z" fill="#f15a29"/>
			</g>
		</g>
		<g>
			<g>
				<path d="M 86 16 L 92 16 L 92 22 L 86 22 L 86 16 Z" fill="#c3c3c3"/>
				<path d="M 94 16 L 100 16 L 100 22 L 94 22 L 94 16 Z" fill="#c3c3c3"/>
				<path d="M 102 16 L 108 16 L 108 22 L 102 22 L 102 16 Z" fill="#c3c3c3"/>
				<path d="M 86 8 L 92 8 L 92 14 L 86 14 L 86 8 Z" fill="#c3c3c3"/>
				<path d="M 94 8 L 100 8 L 100 14 L 94 14 L 94 8 Z" fill="#c3c3c3"/>
				<path d="M 102 8 L 108 8 L 108 14 L 102 14 L 102 8 Z" fill="#c3c3c3"/>
			</g>
		</g>
		<g>
			<path id="Ellipse" d="M 116 20 C 116 11.1633 123.1633 4 132 4 C 140.8367 4 148 11.1633 148 20 C 148 28.8367 140.8367 36 132 36 C 123.1633 36 116 28.8367 116 20 Z" fill="#ffcc00"/>
			<path d="M 127.9116 32 C 126.2998 28.6716 127.1583 26.7646 128.3972 24.9677 C 129.7539 23 130.1038 21.0522 130.1038 21.0522 C 130.1038 21.0522 131.17 22.428 130.7435 24.5797 C 132.6277 22.4985 132.9833 19.1825 132.699 17.9126 C 136.9579 20.8658 138.7781 27.2605 136.325 32 C 149.3719 24.6749 139.5703 13.7147 137.8639 12.4801 C 138.4327 13.7147 138.5408 15.8047 137.3916 16.8191 C 135.4463 9.5001 130.6367 8 130.6367 8 C 131.2056 11.7744 128.575 15.9019 126.0383 18.9858 C 125.949 17.4807 125.8544 16.4423 125.0569 15.002 C 124.8777 17.7361 122.772 19.9647 122.2017 22.7042 C 121.4294 26.4139 122.7803 29.1304 127.9116 32 L 127.9116 32 ZM 127.9116 32 L 127.9116 32 Z" fill="#ffffff"/>
		</g>
		<g>
			<g>
				<path id="Ellipse2" d="M 116 100 C 116 91.1633 123.1633 84 132 84 C 140.8367 84 148 91.1633 148 100 C 148 108.8367 140.8367 116 132 116 C 123.1633 116 116 108.8367 116 100 Z" fill="#ffcc00"/>
			</g>
			<path d="M 123.387 107.8667 C 123.2661 108.0177 123.3149 108.2805 123.5098 108.4762 C 123.7031 108.6697 123.9677 108.7188 124.1167 108.5981 C 124.1167 108.5981 126.5486 106.8154 126.585 106.7799 C 126.8568 106.5065 126.7697 105.9777 126.3877 105.5946 C 126.007 105.2136 125.4766 105.1248 125.2047 105.3993 C 125.1692 105.4349 123.387 107.8667 123.387 107.8667 ZM 120.3456 99.4846 C 120.1522 99.5042 120 99.7253 120 100.0017 C 120 100.2755 120.1522 100.4985 120.3456 100.5181 C 120.3456 100.5181 123.3242 100.9774 123.374 100.9774 C 123.7604 100.9774 124.0699 100.5402 124.0699 100.0017 C 124.0699 99.4624 123.7604 99.0234 123.374 99.0234 C 123.3242 99.0234 120.3456 99.4846 120.3456 99.4846 ZM 132.5017 88.3458 C 132.483 88.1532 132.261 88 131.9849 88 C 131.7112 88 131.4893 88.1532 131.4688 88.3458 C 131.4688 88.3458 131.0078 91.3259 131.0078 91.3759 C 131.0078 91.7625 131.4468 92.0739 131.9849 92.0739 C 132.5247 92.0739 132.9618 91.7625 132.9618 91.3759 C 132.9618 91.3259 132.5017 88.3458 132.5017 88.3458 ZM 131.4983 111.656 C 131.5178 111.8486 131.7407 112 132.0143 112 C 132.2905 112 132.5117 111.8486 132.5313 111.656 C 132.5313 111.656 132.9912 108.6758 132.9912 108.625 C 132.9912 108.2394 132.5532 107.9279 132.0143 107.9279 C 131.4771 107.9279 131.0382 108.2394 131.0382 108.625 C 131.0382 108.6758 131.4983 111.656 131.4983 111.656 ZM 124.1172 91.4044 C 123.968 91.2826 123.7036 91.3315 123.5088 91.5264 C 123.3154 91.7198 123.2665 91.9854 123.3875 92.1355 C 123.3875 92.1355 125.1697 94.5677 125.2052 94.6033 C 125.4762 94.8749 126.007 94.7881 126.3881 94.4059 C 126.7688 94.0258 126.8568 93.4952 126.5841 93.2214 C 126.5476 93.1859 124.1172 91.4044 124.1172 91.4044 ZM 131.9796 93.9742 C 128.6221 93.9742 125.957 96.678 125.957 100.0017 C 125.957 103.3242 128.6221 106.0271 131.9796 106.0271 C 135.3401 106.0271 138.0027 103.3242 138.0027 100.0017 C 138.0027 96.678 135.3401 93.9742 131.9796 93.9742 ZM 140.613 92.1355 C 140.7335 91.9854 140.6841 91.7207 140.4912 91.526 C 140.2977 91.3324 140.0323 91.2826 139.8828 91.4044 C 139.8828 91.4044 137.4507 93.1868 137.415 93.2214 C 137.1423 93.4952 137.2312 94.0254 137.6123 94.4067 C 137.993 94.7877 138.5234 94.8749 138.797 94.6028 C 138.8317 94.5673 140.613 92.1355 140.613 92.1355 ZM 143.6561 100.5176 C 143.8469 100.498 144 100.2759 144 100.0013 C 144 99.7258 143.8469 99.5037 143.6561 99.4841 C 143.6561 99.4841 140.6768 99.0238 140.626 99.0238 C 140.2388 99.0238 139.9292 99.462 139.9292 100.0013 C 139.9292 100.5405 140.2388 100.9771 140.626 100.9771 C 140.6768 100.9771 143.6561 100.5176 143.6561 100.5176 ZM 139.8828 108.5977 C 140.032 108.7196 140.2974 108.6697 140.4919 108.4758 C 140.6836 108.2814 140.7335 108.0177 140.6125 107.8662 C 140.6125 107.8662 138.8313 105.4344 138.7966 105.3989 C 138.5242 105.1243 137.993 105.2133 137.6119 105.5955 C 137.2321 105.9772 137.1423 106.5061 137.4159 106.7808 C 137.4514 106.8154 139.8828 108.5977 139.8828 108.5977 Z" fill="#ffffff"/>
		</g>
		<g>
			<g>
				<path id="Ellipse3" d="M 116 180 C 116 171.1633 123.1633 164 132 164 C 140.8367 164 148 171.1633 148 180 C 148 188.8367 140.8367 196 132 196 C 123.1633 196 116 188.8367 116 180 Z" fill="#ffcc00"/>
			</g>
			<path d="M 138.7048 188.0513 C 138.6301 188.0513 138.5614 188.0411 138.495 188.02 C 138.428 188.0411 138.355 188.0513 138.2827 188.0513 L 138.7048 188.0513 ZM 138.2827 171.92 C 138.3542 171.92 138.4235 171.9333 138.49 171.955 C 138.5579 171.9335 138.6306 171.92 138.7048 171.92 L 138.2827 171.92 ZM 125.7173 188.0513 C 125.645 188.0513 125.572 188.0411 125.505 188.02 C 125.4386 188.0411 125.3699 188.0513 125.2952 188.0513 L 125.7173 188.0513 ZM 125.2952 171.92 C 125.3694 171.92 125.4421 171.9335 125.51 171.955 C 125.5765 171.9333 125.6458 171.92 125.7173 171.92 L 125.2952 171.92 ZM 126 172.6472 C 126.032 172.3392 125.8124 172.0509 125.51 171.955 C 125.2253 172.0475 125.0033 172.3207 125 172.6472 L 125 175.1755 L 122.4575 173.7175 C 122.1033 173.5111 121.288 173.6334 121.1033 173.9752 C 120.9089 174.3359 121.0094 174.762 121.364 174.967 L 123.9323 176.4508 L 121.6897 177.7922 C 121.3384 177.962 121.228 178.434 121.4426 178.7813 C 121.58 179.0062 121.781 179.1201 122.0552 179.1201 C 122.1978 179.1201 122.3174 179.0851 122.4329 179.0145 L 125.3663 177.2834 L 130.0732 179.979 L 125.3663 182.7014 L 122.4329 180.9679 C 122.0808 180.7631 121.6261 180.8594 121.4426 181.2039 C 121.2485 181.562 121.3533 181.9933 121.6897 182.1927 L 123.9323 183.5208 L 121.364 185.0183 C 121.0107 185.2245 120.8955 185.6571 121.1033 186.0099 C 121.2485 186.254 121.4426 186.3734 121.7158 186.3734 C 121.781 186.3734 122.2881 186.3353 122.4575 186.2689 L 125 184.8093 L 125 187.3378 C 125.0033 187.6637 125.2212 187.9304 125.505 188.02 C 125.7988 187.9265 126.0022 187.6415 126 187.3107 L 126 183.952 L 131 181.2567 L 131 186.5931 L 128.0134 188.2738 C 127.6578 188.4745 127.3232 188.9099 127.5309 189.2627 C 127.6748 189.5109 127.869 189.6302 128.1433 189.6302 C 128.2737 189.6302 128.6033 189.6072 128.7051 189.5488 L 131 188.2494 L 131 191.2825 C 131 191.6853 131.0759 192 131.4807 192 C 131.8838 192 132.1162 192 132.5193 192 C 132.9241 192 133 191.6853 133 191.2825 L 133 188.2494 L 135.2949 189.5488 C 135.3967 189.6072 135.7263 189.6302 135.8567 189.6302 C 136.131 189.6302 136.3252 189.5109 136.4691 189.2627 C 136.6768 188.9099 136.3422 188.4745 135.9866 188.2738 L 133 186.5931 L 133 181.2567 L 138 183.952 L 138 187.3107 C 137.9978 187.6415 138.2012 187.9265 138.495 188.02 C 138.7788 187.9304 138.9967 187.6637 139 187.3378 L 139 184.8093 L 141.5425 186.2689 C 141.7119 186.3353 142.219 186.3734 142.2842 186.3734 C 142.5574 186.3734 142.7515 186.254 142.8967 186.0099 C 143.1045 185.6571 142.9893 185.2245 142.636 185.0183 L 140.0677 183.5208 L 142.3103 182.1927 C 142.6467 181.9933 142.7515 181.562 142.5574 181.2039 C 142.3739 180.8594 141.9192 180.7631 141.5671 180.9679 L 138.6337 182.7014 L 133.9268 179.979 L 138.6337 177.2834 L 141.5671 179.0145 C 141.6826 179.0851 141.8022 179.1201 141.9448 179.1201 C 142.219 179.1201 142.42 179.0062 142.5574 178.7813 C 142.772 178.434 142.6616 177.962 142.3103 177.7922 L 140.0677 176.4508 L 142.636 174.967 C 142.9906 174.762 143.0911 174.3359 142.8967 173.9752 C 142.712 173.6334 141.8967 173.5111 141.5425 173.7175 L 139 175.1755 L 139 172.6472 C 138.9967 172.3207 138.7747 172.0475 138.49 171.955 C 138.1876 172.0509 137.968 172.3392 138 172.6472 L 138 176.0088 L 133 178.7285 L 133 173.3646 L 135.9866 171.684 C 136.3369 171.486 136.6729 171.0505 136.4691 170.6953 C 136.2697 170.348 135.6525 170.2367 135.2949 170.4335 L 133 171.7114 L 133 168.7284 C 133 168.3257 132.9241 168 132.5193 168 C 132.1162 168 131.8838 168 131.4807 168 C 131.0759 168 131 168.3257 131 168.7284 L 131 171.7114 L 128.7051 170.4335 C 128.3475 170.2367 127.7303 170.348 127.5309 170.6953 C 127.3271 171.0505 127.6631 171.486 128.0134 171.684 L 131 173.3646 L 131 178.7285 L 126 176.0088 L 126 172.6472 Z" fill="#ffffff"/>
		</g>
		<g>
			<g>
				<path id="Ellipse4" d="M 116 220 C 116 211.1633 123.1633 204 132 204 C 140.8367 204 148 211.1633 148 220 C 148 228.8367 140.8367 236 132 236 C 123.1633 236 116 228.8367 116 220 Z" fill="#dcdcdc"/>
			</g>
			<path d="M 138.7048 228.0513 C 138.6301 228.0513 138.5614 228.0411 138.495 228.02 C 138.428 228.0411 138.355 228.0513 138.2827 228.0513 L 138.7048 228.0513 ZM 138.2827 211.92 C 138.3542 211.92 138.4235 211.9333 138.49 211.955 C 138.5579 211.9335 138.6306 211.92 138.7048 211.92 L 138.2827 211.92 ZM 125.7173 228.0513 C 125.645 228.0513 125.572 228.0411 125.505 228.02 C 125.4386 228.0411 125.3699 228.0513 125.2952 228.0513 L 125.7173 228.0513 ZM 125.2952 211.92 C 125.3694 211.92 125.4421 211.9335 125.51 211.955 C 125.5765 211.9333 125.6458 211.92 125.7173 211.92 L 125.2952 211.92 ZM 126 212.6472 C 126.032 212.3392 125.8124 212.0509 125.51 211.955 C 125.2253 212.0475 125.0033 212.3207 125 212.6472 L 125 215.1755 L 122.4575 213.7175 C 122.1033 213.5111 121.288 213.6334 121.1033 213.9752 C 120.9089 214.3359 121.0094 214.762 121.364 214.967 L 123.9323 216.4508 L 121.6897 217.7922 C 121.3384 217.962 121.228 218.434 121.4426 218.7813 C 121.58 219.0062 121.781 219.1201 122.0552 219.1201 C 122.1978 219.1201 122.3174 219.0851 122.4329 219.0145 L 125.3663 217.2834 L 130.0732 219.979 L 125.3663 222.7014 L 122.4329 220.9679 C 122.0808 220.7631 121.6261 220.8594 121.4426 221.2039 C 121.2485 221.562 121.3533 221.9933 121.6897 222.1927 L 123.9323 223.5208 L 121.364 225.0183 C 121.0107 225.2245 120.8955 225.6571 121.1033 226.0099 C 121.2485 226.254 121.4426 226.3734 121.7158 226.3734 C 121.781 226.3734 122.2881 226.3353 122.4575 226.2689 L 125 224.8093 L 125 227.3378 C 125.0033 227.6637 125.2212 227.9304 125.505 228.02 C 125.7988 227.9265 126.0022 227.6415 126 227.3107 L 126 223.952 L 131 221.2567 L 131 226.5931 L 128.0134 228.2738 C 127.6578 228.4745 127.3232 228.9099 127.5309 229.2627 C 127.6748 229.5109 127.869 229.6302 128.1433 229.6302 C 128.2737 229.6302 128.6033 229.6072 128.7051 229.5488 L 131 228.2494 L 131 231.2825 C 131 231.6853 131.0759 232 131.4807 232 C 131.8838 232 132.1162 232 132.5193 232 C 132.9241 232 133 231.6853 133 231.2825 L 133 228.2494 L 135.2949 229.5488 C 135.3967 229.6072 135.7263 229.6302 135.8567 229.6302 C 136.131 229.6302 136.3252 229.5109 136.4691 229.2627 C 136.6768 228.9099 136.3422 228.4745 135.9866 228.2738 L 133 226.5931 L 133 221.2567 L 138 223.952 L 138 227.3107 C 137.9978 227.6415 138.2012 227.9265 138.495 228.02 C 138.7788 227.9304 138.9967 227.6637 139 227.3378 L 139 224.8093 L 141.5425 226.2689 C 141.7119 226.3353 142.219 226.3734 142.2842 226.3734 C 142.5574 226.3734 142.7515 226.254 142.8967 226.0099 C 143.1045 225.6571 142.9893 225.2245 142.636 225.0183 L 140.0677 223.5208 L 142.3103 222.1927 C 142.6467 221.9933 142.7515 221.562 142.5574 221.2039 C 142.3739 220.8594 141.9192 220.7631 141.5671 220.9679 L 138.6337 222.7014 L 133.9268 219.979 L 138.6337 217.2834 L 141.5671 219.0145 C 141.6826 219.0851 141.8022 219.1201 141.9448 219.1201 C 142.219 219.1201 142.42 219.0062 142.5574 218.7813 C 142.772 218.434 142.6616 217.962 142.3103 217.7922 L 140.0677 216.4508 L 142.636 214.967 C 142.9906 214.762 143.0911 214.3359 142.8967 213.9752 C 142.712 213.6334 141.8967 213.5111 141.5425 213.7175 L 139 215.1755 L 139 212.6472 C 138.9967 212.3207 138.7747 212.0475 138.49 211.955 C 138.1876 212.0509 137.968 212.3392 138 212.6472 L 138 216.0088 L 133 218.7285 L 133 213.3646 L 135.9866 211.684 C 136.3369 211.486 136.6729 211.0505 136.4691 210.6953 C 136.2697 210.348 135.6525 210.2367 135.2949 210.4335 L 133 211.7114 L 133 208.7284 C 133 208.3257 132.9241 208 132.5193 208 C 132.1162 208 131.8838 208 131.4807 208 C 131.0759 208 131 208.3257 131 208.7284 L 131 211.7114 L 128.7051 210.4335 C 128.3475 210.2367 127.7303 210.348 127.5309 210.6953 C 127.3271 211.0505 127.6631 211.486 128.0134 211.684 L 131 213.3646 L 131 218.7285 L 126 216.0088 L 126 212.6472 Z" fill="#ffffff"/>
			<g>
				<path d="M 141.6951 232.7 C 142.9474 231.6461 144.3052 230.0165 144.135 230.135 L 121.865 207.865 C 121.9834 207.6949 120.3538 209.0525 119.3 210.3049 C 119.6737 209.9788 119.9131 209.7959 119.865 209.865 L 142.135 232.135 C 142.2041 232.0868 142.0211 232.3263 141.6951 232.7 Z" fill="#e31f06"/>
				<path id="Ellipse5" d="M 116 220 C 116 211.1633 123.1633 204 132 204 C 140.8367 204 148 211.1633 148 220 C 148 228.8367 140.8367 236 132 236 C 123.1633 236 116 228.8367 116 220 Z" stroke="#e31f06" stroke-width="2" fill="none"/>
			</g>
		</g>
		<g>
			<path id="Ellipse6" d="M 116 140 C 116 131.1633 123.1633 124 132 124 C 140.8367 124 148 131.1633 148 140 C 148 148.8367 140.8367 156 132 156 C 123.1633 156 116 148.8367 116 140 Z" fill="#dcdcdc"/>
			<path d="M 123.387 147.8667 C 123.2661 148.0177 123.3149 148.2805 123.5098 148.4762 C 123.7031 148.6697 123.9677 148.7188 124.1167 148.5981 C 124.1167 148.5981 126.5486 146.8154 126.585 146.7799 C 126.8568 146.5065 126.7697 145.9777 126.3877 145.5946 C 126.007 145.2136 125.4766 145.1248 125.2047 145.3993 C 125.1692 145.4349 123.387 147.8667 123.387 147.8667 ZM 120.3456 139.4846 C 120.1522 139.5042 120 139.7253 120 140.0017 C 120 140.2755 120.1522 140.4985 120.3456 140.5181 C 120.3456 140.5181 123.3242 140.9774 123.374 140.9774 C 123.7604 140.9774 124.0699 140.5402 124.0699 140.0017 C 124.0699 139.4624 123.7604 139.0234 123.374 139.0234 C 123.3242 139.0234 120.3456 139.4846 120.3456 139.4846 ZM 132.5017 128.3458 C 132.483 128.1532 132.261 128 131.9849 128 C 131.7112 128 131.4893 128.1532 131.4688 128.3458 C 131.4688 128.3458 131.0078 131.3259 131.0078 131.3759 C 131.0078 131.7625 131.4468 132.0739 131.9849 132.0739 C 132.5247 132.0739 132.9618 131.7625 132.9618 131.3759 C 132.9618 131.3259 132.5017 128.3458 132.5017 128.3458 ZM 131.4983 151.656 C 131.5178 151.8486 131.7407 152 132.0143 152 C 132.2905 152 132.5117 151.8486 132.5313 151.656 C 132.5313 151.656 132.9912 148.6758 132.9912 148.625 C 132.9912 148.2394 132.5532 147.9279 132.0143 147.9279 C 131.4771 147.9279 131.0382 148.2394 131.0382 148.625 C 131.0382 148.6758 131.4983 151.656 131.4983 151.656 ZM 124.1172 131.4044 C 123.968 131.2826 123.7036 131.3315 123.5088 131.5264 C 123.3154 131.7198 123.2665 131.9854 123.3875 132.1355 C 123.3875 132.1355 125.1697 134.5677 125.2052 134.6033 C 125.4762 134.8749 126.007 134.7881 126.3881 134.4059 C 126.7688 134.0258 126.8568 133.4952 126.5841 133.2214 C 126.5476 133.1859 124.1172 131.4044 124.1172 131.4044 ZM 131.9796 133.9742 C 128.6221 133.9742 125.957 136.678 125.957 140.0017 C 125.957 143.3242 128.6221 146.0271 131.9796 146.0271 C 135.3401 146.0271 138.0027 143.3242 138.0027 140.0017 C 138.0027 136.678 135.3401 133.9742 131.9796 133.9742 ZM 140.613 132.1355 C 140.7335 131.9854 140.6841 131.7207 140.4912 131.526 C 140.2977 131.3324 140.0323 131.2826 139.8828 131.4044 C 139.8828 131.4044 137.4507 133.1868 137.415 133.2214 C 137.1423 133.4952 137.2312 134.0254 137.6123 134.4067 C 137.993 134.7877 138.5234 134.8749 138.797 134.6028 C 138.8317 134.5673 140.613 132.1355 140.613 132.1355 ZM 143.6561 140.5176 C 143.8469 140.498 144 140.2759 144 140.0013 C 144 139.7258 143.8469 139.5037 143.6561 139.4841 C 143.6561 139.4841 140.6768 139.0238 140.626 139.0238 C 140.2388 139.0238 139.9292 139.462 139.9292 140.0013 C 139.9292 140.5405 140.2388 140.9771 140.626 140.9771 C 140.6768 140.9771 143.6561 140.5176 143.6561 140.5176 ZM 139.8828 148.5977 C 140.032 148.7196 140.2974 148.6697 140.4919 148.4758 C 140.6836 148.2814 140.7335 148.0177 140.6125 147.8662 C 140.6125 147.8662 138.8313 145.4344 138.7966 145.3989 C 138.5242 145.1243 137.993 145.2133 137.6119 145.5955 C 137.2321 145.9772 137.1423 146.5061 137.4159 146.7808 C 137.4514 146.8154 139.8828 148.5977 139.8828 148.5977 Z" fill="#ffffff"/>
			<g>
				<path d="M 141.6951 152.7 C 142.9474 151.6461 144.3052 150.0165 144.135 150.135 L 121.865 127.865 C 121.9834 127.6949 120.3538 129.0525 119.3 130.3049 C 119.6737 129.9788 119.9131 129.7959 119.865 129.865 L 142.135 152.135 C 142.2041 152.0868 142.0211 152.3263 141.6951 152.7 Z" fill="#e31f06"/>
				<path id="Ellipse7" d="M 116 140 C 116 131.1633 123.1633 124 132 124 C 140.8367 124 148 131.1633 148 140 C 148 148.8367 140.8367 156 132 156 C 123.1633 156 116 148.8367 116 140 Z" stroke="#e31f06" stroke-width="2" fill="none"/>
			</g>
		</g>
		<g>
			<path id="Ellipse8" d="M 116 60 C 116 51.1633 123.1633 44 132 44 C 140.8367 44 148 51.1633 148 60 C 148 68.8367 140.8367 76 132 76 C 123.1633 76 116 68.8367 116 60 Z" fill="#dcdcdc"/>
			<path d="M 127.9116 72 C 126.2998 68.6716 127.1583 66.7646 128.3972 64.9677 C 129.7539 63 130.1038 61.0522 130.1038 61.0522 C 130.1038 61.0522 131.17 62.428 130.7435 64.5797 C 132.6277 62.4985 132.9833 59.1825 132.699 57.9126 C 136.9579 60.8658 138.7781 67.2605 136.325 72 C 149.3719 64.6749 139.5703 53.7147 137.8639 52.4801 C 138.4327 53.7147 138.5408 55.8047 137.3916 56.8191 C 135.4463 49.5001 130.6367 48 130.6367 48 C 131.2056 51.7744 128.575 55.9019 126.0383 58.9858 C 125.949 57.4807 125.8544 56.4423 125.0569 55.002 C 124.8777 57.7361 122.772 59.9647 122.2017 62.7042 C 121.4294 66.4139 122.7803 69.1304 127.9116 72 L 127.9116 72 ZM 127.9116 72 L 127.9116 72 Z" fill="#ffffff"/>
			<path d="M 141.6951 72.7 C 142.9474 71.6461 144.3052 70.0165 144.135 70.135 L 121.865 47.865 C 121.9834 47.6949 120.3538 49.0525 119.3 50.3049 C 119.6737 49.9788 119.9131 49.7959 119.865 49.865 L 142.135 72.135 C 142.2041 72.0868 142.0211 72.3263 141.6951 72.7 Z" fill="#e31f06"/>
			<path id="Ellipse9" d="M 116 60 C 116 51.1633 123.1633 44 132 44 C 140.8367 44 148 51.1633 148 60 C 148 68.8367 140.8367 76 132 76 C 123.1633 76 116 68.8367 116 60 Z" stroke="#e31f06" stroke-width="2" fill="none"/>
		</g>
		<path d="M 43.5 310.5 L 47.5 314.5 L 49 313 L 54.5 307.5 L 53.1666 306.1667 L 47.6666 311.6667 L 45 309 L 43.5 310.5 Z" fill="#3fb219"/>
		<g>
			<path d="M 43.5829 327.0098 C 45.5144 325.1332 48.4682 324.4893 50.6997 325.8156 C 49.943 326.543 49.0712 327.6887 49.0712 327.6887 C 48.4599 328.4001 49.1463 328.8105 49.4948 328.8 L 53.5719 328.8 C 53.7878 328.8 53.9638 329.0969 53.9638 329.0969 C 53.9638 329.0969 54.1409 328.8 54.3568 328.8 L 54.8938 328.8 C 55.1097 328.8 55.2845 328.629 55.2857 328.4189 L 55.2857 322.674 C 55.3104 322.1752 54.7472 321.6921 54.1652 322.2481 C 54.1652 322.2481 53.4569 323.1594 52.7928 323.7993 C 49.395 321.3874 44.6049 322.0358 41.5347 325.0192 C 39.7434 326.7599 38.9077 329.0692 39.0081 331.35 L 41.9093 331.35 C 41.8066 329.792 42.3569 328.2013 43.5829 327.0098 Z" fill="#c3c3c3"/>
			<path d="M 54.0905 329.65 C 54.1932 331.208 53.6429 333.1751 52.4169 334.3665 C 50.4851 336.2431 47.5325 336.511 45.301 335.1851 C 46.0566 334.4577 46.9289 333.3105 46.9289 333.3105 C 47.5393 332.599 46.8538 332.1886 46.5053 332.2 L 42.427 332.2 C 42.212 332.2 42.0361 331.9022 42.0361 331.9022 C 42.0361 331.9022 41.8583 332.2 41.6427 332.2 L 41.1059 332.2 C 40.8903 332.2 40.7149 332.371 40.7143 332.5808 L 40.7143 338.3261 C 40.6896 338.8249 41.2525 339.3078 41.8348 338.752 C 41.8348 338.752 42.5406 337.8404 43.2058 337.2014 C 46.6056 339.615 51.3949 338.9636 54.4648 335.9805 C 56.2546 334.2407 57.0918 331.9308 56.992 329.65 L 54.0905 329.65 L 54.0905 329.65 Z" fill="#c3c3c3"/>
		</g>
		<path id="Maximize" d="M 37 69 L 35.716 67.716 L 32.4259 71.0062 L 30.9938 69.5741 L 34.284 66.284 L 33 65 C 33 64.4476 33.4478 64 34 64 L 37 64 C 37.5524 64 38 64.4476 38 65 L 38 68 C 38 68.5524 37.5524 69 37 69 ZM 27 79 C 27 79.5524 26.5524 80 26 80 L 23 80 C 22.4478 80 22 79.5524 22 79 L 22 76 C 22 75.4478 22.4478 75 23 75 L 24.284 76.284 L 27.5741 72.9938 L 29.0062 74.4259 L 25.716 77.716 L 27 79 Z" fill="#ffffff"/>
		<path d="M 42 348 L 40 350 L 46 356 L 56 346 L 54 344 L 46 352 L 42 348 Z" fill="#ffffff"/>
		<path id="Delete" d="M 35.6569 109.6569 C 32.5327 112.7811 27.4673 112.7811 24.3431 109.6569 C 21.219 106.5327 21.219 101.4673 24.3431 98.3431 C 27.4673 95.2189 32.5327 95.2189 35.6569 98.3431 C 38.781 101.4673 38.781 106.5327 35.6569 109.6569 ZM 34.2427 99.7573 C 31.8994 97.4142 28.1005 97.4142 25.7573 99.7573 C 23.4142 102.1005 23.4142 105.8995 25.7573 108.2426 C 28.1005 110.5858 31.8995 110.5858 34.2427 108.2426 C 36.5858 105.8995 36.5858 102.1005 34.2427 99.7573 ZM 32.1213 107.5355 L 30 105.4142 L 27.8787 107.5355 L 26.4645 106.1213 L 28.5858 104 L 26.4645 101.8787 L 27.8787 100.4645 L 30 102.5858 L 32.1213 100.4645 L 33.5355 101.8787 L 31.4142 104 L 33.5355 106.1213 L 32.1213 107.5355 Z" fill="#a3180f"/>
		<path id="Delete2" d="M 35.6569 93.6569 C 32.5327 96.7811 27.4673 96.7811 24.3431 93.6569 C 21.219 90.5327 21.219 85.4673 24.3431 82.3431 C 27.4673 79.2189 32.5327 79.2189 35.6569 82.3431 C 38.781 85.4673 38.781 90.5327 35.6569 93.6569 ZM 34.2427 83.7573 C 31.8994 81.4142 28.1005 81.4142 25.7573 83.7573 C 23.4142 86.1005 23.4142 89.8995 25.7573 92.2426 C 28.1005 94.5858 31.8995 94.5858 34.2427 92.2426 C 36.5858 89.8995 36.5858 86.1005 34.2427 83.7573 ZM 32.1213 91.5355 L 30 89.4142 L 27.8787 91.5355 L 26.4645 90.1213 L 28.5858 88 L 26.4645 85.8787 L 27.8787 84.4645 L 30 86.5858 L 32.1213 84.4645 L 33.5355 85.8787 L 31.4142 88 L 33.5355 90.1213 L 32.1213 91.5355 Z" fill="#cccccc"/>
		<g>
			<path d="M 71.6974 361.9279 L 81.5981 378.6547 C 81.8639 379.0472 82 379.5123 82 379.9802 C 82 380.3276 81.9242 381.4471 81.7695 381.7695 C 81.4114 382.5247 80.6896 383 79.9008 383 L 60.0999 383 C 59.3088 383 58.5881 382.5247 58.2292 381.7695 C 57.8705 381.0167 57.9366 379.3398 58.4006 378.6547 L 68.3013 361.9279 C 68.696 361.3452 69.327 361 69.9995 361 C 70.6716 361 71.301 361.3427 71.6974 361.9279 Z" fill="#ffcc00"/>
			<path id="Ellipse10" d="M 69 377.9999 C 69 377.4478 69.4478 377 70 377 C 70.5522 377 71 377.4478 71 377.9999 C 71 378.5524 70.5522 379 70 379 C 69.4478 379 69 378.5524 69 377.9999 Z" fill="#ffffff"/>
			<path d="M 71 369.0286 C 71 368.4604 70.5522 368 70 368 C 69.4478 368 69 368.4604 69 369.0286 L 69 374.7571 C 69 375.3252 69.4478 375.7856 70 375.7856 C 70.5522 375.7856 71 375.3252 71 374.7571 L 71 369.0286 Z" fill="#ffffff"/>
		</g>
		<path d="M 57.9372 368.8898 C 57.9055 368.6086 57.5778 368.3972 57.2944 368.3972 C 56.378 368.3972 55.5648 367.8593 55.2236 367.0269 C 54.8755 366.1745 55.1001 365.1807 55.7828 364.5544 C 55.9979 364.3578 56.0241 364.0286 55.8439 363.8 C 55.3748 363.2045 54.8417 362.6663 54.2596 362.2002 C 54.0318 362.0174 53.6971 362.0429 53.4995 362.2616 C 52.9036 362.9218 51.8327 363.1671 51.0054 362.8219 C 50.1446 362.4597 49.6014 361.5872 49.6548 360.6508 C 49.6722 360.3565 49.4571 360.1007 49.1639 360.0666 C 48.4168 359.9801 47.6632 359.9776 46.914 360.0607 C 46.6244 360.0927 46.4092 360.3424 46.4191 360.6331 C 46.4514 361.5603 45.902 362.4174 45.0496 362.7666 C 44.232 363.1005 43.1688 362.8571 42.574 362.2027 C 42.3775 361.9872 42.0486 361.9607 41.8194 362.1395 C 41.2201 362.6097 40.6751 363.1482 40.2017 363.739 C 40.0171 363.9686 40.0444 364.3014 40.2613 364.4987 C 40.9574 365.1292 41.182 366.1317 40.8204 366.9939 C 40.4752 367.8161 39.6218 368.3456 38.6447 368.3456 C 38.3275 368.3354 38.1018 368.5483 38.0669 368.8368 C 37.9789 369.5878 37.9779 370.3534 38.0626 371.1106 C 38.0942 371.3929 38.4318 371.6026 38.7185 371.6026 C 39.5894 371.5804 40.4251 372.1193 40.7761 372.9728 C 41.1257 373.8252 40.9008 374.8186 40.2169 375.4458 C 40.0029 375.6423 39.9756 375.9708 40.1563 376.199 C 40.6206 376.7909 41.154 377.3294 41.738 377.7996 C 41.9672 377.9841 42.3004 377.9583 42.4992 377.7392 C 43.0976 377.0776 44.1681 376.8327 44.9922 377.1786 C 45.8555 377.5398 46.3984 378.4122 46.3453 379.3489 C 46.3278 379.6432 46.5437 379.8997 46.8358 379.9331 C 47.2181 379.9778 47.6025 380 47.9881 380 C 48.354 380 48.7199 379.98 49.0858 379.9393 C 49.3757 379.9073 49.5905 379.6573 49.5807 379.3667 C 49.5472 378.4398 50.0977 377.5826 50.9491 377.2342 C 51.7721 376.8981 52.8305 377.1441 53.4257 377.7974 C 53.6234 378.0125 53.95 378.0386 54.1804 377.8606 C 54.7785 377.3915 55.3224 376.8534 55.7981 376.2611 C 55.9827 376.0318 55.9565 375.6986 55.7385 375.501 C 55.0423 374.8709 54.8167 373.8681 55.1782 373.0066 C 55.5179 372.1956 56.3398 371.6509 57.2239 371.6509 L 57.3474 371.6542 C 57.6345 371.6774 57.8983 371.4565 57.9328 371.1637 C 58.0211 370.4119 58.0222 369.6471 57.9372 368.8898 L 57.9372 368.8898 ZM 48.0157 373.3568 C 46.1763 373.3568 44.6804 371.8606 44.6804 370.0213 C 44.6804 368.182 46.1763 366.6857 48.0157 366.6857 C 49.8554 366.6857 51.3513 368.182 51.3513 370.0213 C 51.3513 371.8606 49.8554 373.3568 48.0157 373.3568 L 48.0157 373.3568 ZM 48.0157 373.3568 L 48.0157 373.3568 Z" fill="#c3c3c3"/>
		<path d="M 57.9372 388.8898 C 57.9055 388.6086 57.5778 388.3972 57.2944 388.3972 C 56.378 388.3972 55.5648 387.8593 55.2236 387.0269 C 54.8755 386.1745 55.1001 385.1807 55.7828 384.5544 C 55.9979 384.3578 56.0241 384.0286 55.8439 383.8 C 55.3748 383.2045 54.8417 382.6663 54.2596 382.2002 C 54.0318 382.0174 53.6971 382.0429 53.4995 382.2616 C 52.9036 382.9218 51.8327 383.1671 51.0054 382.8219 C 50.1446 382.4597 49.6014 381.5872 49.6548 380.6508 C 49.6722 380.3565 49.4571 380.1007 49.1639 380.0666 C 48.4168 379.9801 47.6632 379.9776 46.914 380.0607 C 46.6244 380.0927 46.4092 380.3424 46.4191 380.6331 C 46.4514 381.5603 45.902 382.4174 45.0496 382.7666 C 44.232 383.1005 43.1688 382.8571 42.574 382.2027 C 42.3775 381.9872 42.0486 381.9607 41.8194 382.1395 C 41.2201 382.6097 40.6751 383.1482 40.2017 383.739 C 40.0171 383.9686 40.0444 384.3014 40.2613 384.4987 C 40.9574 385.1292 41.182 386.1317 40.8204 386.9939 C 40.4752 387.8161 39.6218 388.3456 38.6447 388.3456 C 38.3275 388.3354 38.1018 388.5483 38.0669 388.8368 C 37.9789 389.5878 37.9779 390.3534 38.0626 391.1106 C 38.0942 391.3929 38.4318 391.6026 38.7185 391.6026 C 39.5894 391.5804 40.4251 392.1193 40.7761 392.9728 C 41.1257 393.8252 40.9008 394.8186 40.2169 395.4458 C 40.0029 395.6423 39.9756 395.9708 40.1563 396.199 C 40.6206 396.7909 41.154 397.3294 41.738 397.7996 C 41.9672 397.9841 42.3004 397.9583 42.4992 397.7392 C 43.0976 397.0776 44.1681 396.8327 44.9922 397.1786 C 45.8555 397.5398 46.3984 398.4122 46.3453 399.3489 C 46.3278 399.6432 46.5437 399.8997 46.8358 399.9331 C 47.2181 399.9778 47.6025 400 47.9881 400 C 48.354 400 48.7199 399.98 49.0858 399.9393 C 49.3757 399.9073 49.5905 399.6573 49.5807 399.3667 C 49.5472 398.4398 50.0977 397.5826 50.9491 397.2342 C 51.7721 396.8981 52.8305 397.1441 53.4257 397.7974 C 53.6234 398.0125 53.95 398.0386 54.1804 397.8606 C 54.7785 397.3915 55.3224 396.8534 55.7981 396.2611 C 55.9827 396.0318 55.9565 395.6986 55.7385 395.501 C 55.0423 394.8709 54.8167 393.8681 55.1782 393.0066 C 55.5179 392.1956 56.3398 391.6509 57.2239 391.6509 L 57.3474 391.6542 C 57.6345 391.6774 57.8983 391.4565 57.9328 391.1637 C 58.0211 390.4119 58.0222 389.6471 57.9372 388.8898 L 57.9372 388.8898 ZM 48.0157 393.3568 C 46.1763 393.3568 44.6804 391.8606 44.6804 390.0213 C 44.6804 388.182 46.1763 386.6857 48.0157 386.6857 C 49.8554 386.6857 51.3513 388.182 51.3513 390.0213 C 51.3513 391.8606 49.8554 393.3568 48.0157 393.3568 L 48.0157 393.3568 ZM 48.0157 393.3568 L 48.0157 393.3568 Z" fill="#f15a29"/>
	</g>
</svg>