<?xml version="1.0" encoding="utf-8"?>
<!-- Generator: Adobe Illustrator 22.0.0, SVG Export Plug-In . SVG Version: 6.00 Build 0)  -->
<!DOCTYPE svg PUBLIC "-//W3C//DTD SVG 1.1//EN" "http://www.w3.org/Graphics/SVG/1.1/DTD/svg11.dtd">
<svg version="1.1" id="Layer_1" xmlns="http://www.w3.org/2000/svg" xmlns:xlink="http://www.w3.org/1999/xlink" x="0px" y="0px"
	 viewBox="0 0 567 93.3" style="enable-background:new 0 0 567 93.3;" xml:space="preserve">
<style type="text/css">
	.st0{fill:url(#SVGID_1_);}
	.st1{fill:#FFFFFF;}
	.st2{fill:#2E3192;}
	.st3{fill:#F15A29;}
</style>
<g>
	<g>
		
			<linearGradient id="SVGID_1_" gradientUnits="userSpaceOnUse" x1="40" y1="69.5703" x2="40" y2="132.2865" gradientTransform="matrix(1 0 0 -1 0 110)">
			<stop  offset="0" style="stop-color:#2E3192"/>
			<stop  offset="1" style="stop-color:#27AAE1"/>
		</linearGradient>
		<path class="st0" d="M40,0C17.9,0,0,17.9,0,40c0,21.6,17.1,39.2,38.6,39.9l0,0H80V40C80,17.9,62.1,0,40,0z"/>
		<path class="st1" d="M71,38H51.1v3.9h2.8C52.9,48.8,47.1,54,40,54c-7.8,0-14-6.3-14-14.1s6.3-14.1,14-14.1c3.9,0,7.4,1.6,9.9,4.1
			l9.9-9.9c-5-5-12.1-8.1-19.8-8.1c-15.5,0-28.1,12.6-28.1,28.1s11.8,28.1,27.3,28.1c5.1,0,11.2-1.7,14.9-5.4v5.4h14.1V41.9H71V38z"
			/>
	</g>
	<g>
		<path class="st2" d="M150.1,72.7c-4.6,3.7-13.8,6.9-21.4,6.9c-14.7,0-26.4-9.5-26.4-25.5c0-16.1,11.8-25.6,26.4-25.6
			c8,0,14.5,2.7,19.5,6.6l-5.6,9.3c-3.7-2.9-8.2-4.6-13.7-4.6c-8,0-14,5.2-14,14.3c0,9,6.1,14.2,14.6,14.2c3.2,0,6.4-0.8,9-2.1v-7.3
			h-11.9v-9.3h23.5V72.7z"/>
		<path class="st2" d="M170.6,27.1v38.6c0,2.3,0.7,3.7,2.6,3.7c1.3,0,2.6-0.4,3.8-1l0.5,9.7c-1.8,0.7-5.4,1.6-9.3,1.6
			c-6.1,0-9.9-2.9-9.9-11V27.1H170.6z"/>
		<path class="st2" d="M186.8,42.7c3.8-1.4,9.7-2.6,15.1-2.6c12.6,0,16.7,6.6,16.7,15.6v23.2h-10.2l-1.7-3.6
			c-2.5,2.3-6,4.3-10.9,4.3c-7.8,0-12.1-4.5-12.1-11.3c0-8.6,6.9-13.3,17.4-13.3c2,0,3.9,0.1,5.6,0.4c-0.1-3.9-2-5.3-5.9-5.3
			s-8.9,1.2-11.9,2.4L186.8,42.7z M200.4,70.9c2.6,0,4.7-1.1,6.2-2.2v-6c-0.9-0.2-2.1-0.4-3.3-0.4c-4.3,0-7.7,1.5-7.7,4.6
			C195.6,69.9,197.5,70.9,200.4,70.9z"/>
		<path class="st2" d="M253.5,52.5c-3.5-1.8-7.4-2.9-11-2.9c-2.5,0-4.1,0.8-4.1,2.6c0,1.5,0.8,1.8,3.1,2.3l5.9,1.6
			c7.8,2.1,10.2,6.1,10.2,11.3c0,7.4-6.4,12.3-16.5,12.3c-6.7,0-12.1-1.8-15-3.3l2.4-9.5c3.5,1.8,7.8,3.5,11.8,3.5
			c2.9,0,5-0.6,5-2.3c0-1.3-1.4-2.2-3.8-2.8l-5.4-1.5c-6.9-1.8-9.8-5.2-9.8-11c0-7.6,5.8-12.8,16.5-12.8c5,0,10.9,1.4,13.9,2.8
			L253.5,52.5z"/>
		<path class="st3" d="M313.9,72.7c-4.6,3.7-13.8,6.9-21.4,6.9c-14.7,0-26.4-9.5-26.4-25.5c0-16.1,11.8-25.6,26.4-25.6
			c8,0,14.5,2.7,19.5,6.6l-5.6,9.3c-3.7-2.9-8.2-4.6-13.7-4.6c-8,0-14,5.2-14,14.3c0,9,6.1,14.2,14.6,14.2c3.2,0,6.4-0.8,9-2.1v-7.3
			h-11.9v-9.3h23.5V72.7z"/>
		<path class="st3" d="M322.1,40.7h12.3v38.2h-12.3V40.7z"/>
		<path class="st3" d="M359.4,40.1c4.9,0,8.5,1.9,10.9,4.5l1.7-3.9h10.5v32.9c0,13.2-9.4,19.7-20.1,19.7c-8.1,0-12.9-2.5-15.6-3.6
			l2.6-9.6c2.6,1.4,6.7,3.5,12.3,3.5c4.6,0,8.5-1.9,8.5-7.4v-3.7c-2.6,2.4-6.3,4.2-10.9,4.2c-10.4,0-17.6-8.3-17.6-18.3
			C341.8,48.3,349,40.1,359.4,40.1z M363,66.1c2.7,0,5.4-1.1,7.3-2.8v-9.7c-1.6-1.5-4.5-2.8-7.3-2.8c-5.3,0-8.6,3.1-8.6,7.7
			S357.7,66.1,363,66.1z"/>
		<path class="st3" d="M392.6,42.7c3.8-1.4,9.7-2.6,15.1-2.6c12.6,0,16.7,6.6,16.7,15.6v23.2h-10.2l-1.7-3.6
			c-2.5,2.3-6,4.3-10.9,4.3c-7.8,0-12.1-4.5-12.1-11.3c0-8.6,6.9-13.3,17.4-13.3c2,0,3.9,0.1,5.6,0.4c-0.1-3.9-2-5.3-5.9-5.3
			s-8.9,1.2-11.9,2.4L392.6,42.7z M406.2,70.9c2.6,0,4.7-1.1,6.2-2.2v-6c-1-0.2-2.1-0.4-3.3-0.4c-4.3,0-7.7,1.5-7.7,4.6
			C401.4,69.9,403.3,70.9,406.2,70.9z"/>
		<path class="st3" d="M444.1,40.7l1.7,4.5c2.9-3.2,6.9-5.1,12.1-5.1c10.4,0,14.6,7.5,14.6,16.9v22h-12.3V59c0-4.9-2.1-7.6-6.7-7.6
			c-4,0-6.5,2.6-7.7,4.7v22.8h-12.3V40.7H444.1z"/>
		<path class="st2" d="M536.4,58.9l1.7,2.3c1.5-1.7,3.6-2.7,6.3-2.7c5.4,0,7.7,3.9,7.7,8.8v11.5h-6.4V68.5c0-2.6-1.1-4-3.5-4
			c-2.1,0-3.4,1.3-4,2.5v11.9h-6.4v-20H536.4z"/>
		<path class="st2" d="M563.3,51.7v20.2c0,1.2,0.4,2,1.4,2c0.7,0,1.3-0.2,2-0.5l0.3,5.1c-1,0.3-2.8,0.8-4.9,0.8
			c-3.2,0-5.2-1.5-5.2-5.7V51.7H563.3z"/>
		<path class="st2" d="M525.9,75.1c0-2.1-1.7-3.8-3.8-3.8s-3.8,1.7-3.8,3.8c0,2.1,1.7,3.8,3.8,3.8C524.1,78.9,525.9,77.2,525.9,75.1
			z"/>
		<path class="st3" d="M507.1,66.4c-1.7,1.2-4.5,2.6-7.2,2.6c-2.9,0-4.5-1.6-4.5-6V50.2h8.4v-9.5h-8.4V31H485l-1.5,9.7h-7.8
			c1.6,2.7,2.6,6,3.2,9.5h4.3v15.4c0,9.2,4.9,14,12.8,14c6,0,11-1.5,14.8-3.9L507.1,66.4z"/>
	</g>
</g>
</svg>
