<?xml version="1.0" standalone="no"?>
<!-- Generator: Adobe Fireworks 10, Export SVG Extension by Aaron Beall (http://fireworks.abeall.com) . Version: 0.6.1  -->
<!DOCTYPE svg PUBLIC "-//W3C//DTD SVG 1.1//EN" "http://www.w3.org/Graphics/SVG/1.1/DTD/svg11.dtd">
<svg id="Untitled-Page%201" viewBox="0 0 59 28" style="background-color:#ffffff00" version="1.1"
	xmlns="http://www.w3.org/2000/svg" xmlns:xlink="http://www.w3.org/1999/xlink" xml:space="preserve"
	x="0px" y="0px" width="59px" height="28px"
>
	<g id="Layer%201">
		<path d="M 4.4924 11.1232 L 4.4644 11.1215 L 4.4775 11.3721 L 4.4924 11.1232 ZM 1.3469 12.9284 C 1.4337 12.8488 1.2416 12.8499 1.2257 12.832 C 1.2026 12.9118 1.3778 12.8228 1.3469 12.9284 ZM 0.6869 19.6161 L 0.6211 19.702 L 0.7421 19.698 L 0.6869 19.6161 ZM 8.3397 22.9924 L 8.2839 23.0327 C 8.2798 23.1068 8.3759 23.1456 8.4153 23.1286 L 8.3397 22.9924 ZM 9.1035 22.6237 C 9.064 22.6423 8.9285 22.6199 8.9812 22.7521 C 8.9575 22.6492 9.2406 22.7445 9.1035 22.6237 ZM 10.281 21.2347 C 10.2256 21.2742 10.2434 21.3525 10.261 21.4288 C 10.1975 21.3438 10.4253 21.3822 10.281 21.2347 ZM 10.4985 21.4182 C 10.5068 21.5437 10.5571 21.5762 10.6296 21.5137 L 10.4985 21.4182 ZM 10.8303 20.5095 C 10.9161 20.5974 11.1234 20.5565 11.2197 20.499 L 10.8303 20.5095 ZM 11.4702 19.8967 C 11.4414 19.8672 11.4662 19.9714 11.4711 19.9957 C 11.5112 19.9777 11.6138 20.0439 11.5962 19.9667 C 11.5564 19.9857 11.521 19.9301 11.4702 19.8967 ZM 13.2959 16.637 C 13.3501 16.7704 13.2952 16.9102 13.4895 16.9911 C 13.4197 16.8809 13.3824 16.7259 13.2959 16.637 ZM 19.798 16.7921 C 19.3923 15.9901 18.4431 16.4317 17.9637 15.794 C 17.9021 15.7399 17.8636 16.1307 17.7314 15.9861 C 17.3207 15.269 16.2871 15.2095 15.4326 15.2135 L 15.4357 15.3236 C 15.2729 15.3266 15.2405 14.952 15.0809 14.9277 C 15.0532 14.9877 15.0887 15.0337 15.0197 15.1006 C 15.064 14.9036 14.7999 14.8981 14.7999 14.7357 C 14.7126 14.7798 14.6538 14.9257 14.5459 14.9709 L 14.5569 14.7284 C 14.5513 14.1364 13.9943 14.5064 13.8007 14.1144 C 13.7938 14.1687 13.8074 14.2195 13.7621 14.2547 C 13.4028 13.7324 12.7585 13.5027 12.2528 13.1393 C 12.2435 13.2231 12.2073 13.3644 12.1395 13.4324 C 12.2051 13.2028 12.0588 13.0668 11.9268 12.9594 C 11.7646 13.1569 11.7502 12.6507 11.519 12.7036 L 11.5144 12.7598 C 11.4758 12.4707 11.2639 12.8191 11.2681 12.4924 L 11.1147 12.6372 C 11.1797 12.2936 10.8596 12.728 10.813 12.5217 L 10.8411 12.4571 C 10.7666 12.3384 10.6531 12.4789 10.5774 12.3867 L 10.5552 12.4199 C 10.3616 12.247 10.1676 12.3763 10.2618 12.1254 C 10.1125 12.2971 10.4463 12.3035 10.2195 12.5494 C 9.5925 11.9648 8.7507 11.8762 7.994 11.6337 C 7.8832 11.7151 7.8214 11.7318 7.7805 11.8256 C 7.7158 11.7517 7.5048 11.6981 7.4615 11.5438 C 7.4863 11.5539 7.385 11.6696 7.3408 11.6793 C 7.1812 11.7622 7.2371 11.3702 7.0576 11.4694 C 7.1089 11.5475 7.1152 11.6357 7.0776 11.7316 C 6.9797 11.5087 6.7935 11.5201 6.644 11.4344 C 6.6628 11.482 6.6975 11.5126 6.6796 11.5963 C 6.5377 11.34 6.3586 11.6068 6.2249 11.4399 L 6.2644 11.6006 C 6.0027 11.759 6.2264 11.2693 6.0027 11.3546 C 6.0492 11.4097 6.0256 11.4686 6.0286 11.5325 C 5.8578 11.2273 5.526 11.2815 5.3326 11.1619 L 5.3385 11.2269 C 5.1229 11.1515 4.8956 11.2379 4.6565 11.141 C 4.5696 11.2151 4.6851 11.5183 4.4589 11.475 C 4.4629 11.1625 4.0684 11.3709 4.1921 11.0102 C 3.9934 11.0732 3.6885 11.2097 3.5486 11.1125 C 3.646 11.2249 3.4843 11.4989 3.6475 11.514 L 3.542 11.7107 C 3.5701 11.8364 3.6614 11.6597 3.636 11.8225 C 3.5571 11.8142 3.3152 11.7068 3.2491 11.761 C 3.0831 11.5798 2.9006 11.2339 2.646 11.2109 C 2.7788 11.3239 2.6301 11.5556 2.7153 11.6035 C 2.407 11.6381 2.8066 10.7198 1.9033 11.5392 C 1.8789 11.6179 2.1433 11.5948 2.0483 11.6993 C 1.9678 11.681 1.9115 11.7241 1.8411 11.7494 C 1.8728 11.7855 1.7234 12.0757 2.0204 12.1563 C 2.1335 12.2097 2.0995 12.0338 2.1963 12.1394 C 2.1748 12.2883 2.071 12.2794 2.0474 12.4282 L 2.0874 12.437 C 2.1204 12.5419 1.9229 12.7091 1.7695 12.5778 C 1.7683 12.5076 1.9478 12.6304 1.8723 12.5154 C 1.6888 12.5595 1.6179 12.7269 1.5962 12.8769 C 1.6509 12.8322 1.7307 12.85 1.8188 12.8419 C 1.5566 13.0093 1.4551 13.2131 1.3289 13.4256 C 1.1836 13.4094 1.5999 13.3763 1.5281 13.3332 C 1.6919 13.6478 1.1714 13.8925 1.4335 14.1705 C 1.4641 14.1345 1.2314 14.1238 1.2715 14.1314 C 1.272 14.2731 1.4814 14.2928 1.3931 14.3738 C 1.5142 14.3979 1.3396 14.4827 1.2908 14.5718 C 1.1967 14.6094 1.3479 14.6031 1.3706 14.5236 C 1.2542 14.6407 0.9919 15.1406 1.1462 15.4621 C 1.0662 15.447 0.8331 15.6141 0.8359 15.6846 L 1.0278 15.6783 C 1.136 15.7542 0.9917 15.909 1.1536 15.9382 C 0.9097 16.0607 1.3979 15.3896 1.2032 15.5703 C 1.3567 15.6394 0.877 15.816 1.1392 15.8013 C 1.1199 15.9396 0.895 16.0519 1.061 16.2034 C 1.0334 16.1619 1.334 16.1187 1.3105 16.2291 C 1.2593 16.4233 1.2148 16.2761 1.1379 16.43 L 1.0513 16.5222 C 0.8671 16.5099 1.0613 16.7021 0.8618 16.6071 C 1.0111 16.6469 0.7422 16.8857 1.05 16.8961 L 1.2942 16.8926 C 1.2686 16.9761 1.0273 17.0072 0.9154 17.0637 L 1.0225 17.104 C 0.6515 17.0815 1.0354 17.3113 0.7413 17.3856 C 0.8538 17.5773 0.7129 17.8433 0.936 17.949 C 0.8121 18.0768 0.6682 18.1909 0.734 18.3555 C 0.7727 18.327 0.7861 18.2852 0.8665 18.2831 C 0.9663 18.3915 0.8668 18.4073 0.7991 18.4924 C 0.8562 18.4771 0.9988 18.7088 1.1199 18.8295 C 0.9976 18.9564 0.8021 18.8929 0.6792 18.8968 C 1.0314 19.0521 0.4137 19.2648 0.7365 19.4486 C 0.79 19.405 0.9281 19.2632 1.0127 19.3846 C 1.3696 19.5385 0.7275 19.6153 0.8906 19.8308 L 0.5906 19.7578 C 0.7726 19.8624 0.3962 20.0414 0.7059 20.0446 C 0.593 20.1038 0.792 20.2905 0.4978 20.2458 C 0.7275 20.5962 0.2969 21.0427 0.8149 21.2842 C 0.7621 21.3281 0.8053 21.4504 0.655 21.4155 C 0.4949 21.3248 0.7797 21.3134 0.6692 21.2758 C 0.6575 21.3179 0.5759 21.3217 0.5349 21.3232 C 0.5958 21.4311 0.6122 21.5138 0.8643 21.4338 C 1.033 21.6753 0.3467 21.6353 0.4442 21.9355 C 0.5676 21.9306 0.6128 21.9557 0.5879 22.04 L 0.3684 22.1884 C 0.4053 22.3804 0.6404 22.3138 0.8472 22.3321 C 0.8053 22.4305 0.8075 22.5543 0.6501 22.5906 L 0.9028 22.7295 C 0.7206 22.6282 0.7726 22.8045 0.7192 22.8486 L 0.7726 22.8045 C 0.86 22.8285 0.7979 22.9417 0.7688 22.9993 C 0.6406 22.9772 0.5964 22.8549 0.5631 22.7873 C 0.469 22.8333 0.4846 22.9149 0.3738 22.9765 C 0.5781 22.9664 0.5105 23.1498 0.5278 23.2308 C 0.5679 23.3254 0.3403 23.3232 0.3457 23.3503 C 0.4512 23.3595 0.356 23.5015 0.5074 23.4388 C 0.5431 23.4097 0.4086 23.361 0.5039 23.3151 C 0.5797 23.3804 0.7639 23.3845 0.6235 23.5021 C 0.5183 23.5905 0.2231 23.4531 0.3428 23.6403 L 0.5521 23.5605 L 0.6494 23.7353 L 0.4639 23.7313 L 0.5507 23.7537 C 0.353 23.7919 0.4788 24.007 0.2566 24.0315 C 0.2328 24.1154 0.3762 24.2182 0.3942 24.3004 L 0.4103 24.2857 C 0.5153 24.3914 0.4365 24.5186 0.3071 24.594 L 0.3481 24.5922 C 0.36 24.6472 0.3245 24.7734 0.212 24.8347 C 0.3459 24.9795 0.9097 24.9218 0.6692 25.0592 C 0.6565 25.1971 0.3186 25.2562 0.2025 25.1935 C 0.3154 25.4498 -0.0009 25.7155 0.2755 25.9628 C 0.2 25.9946 0.1531 25.9692 0.1055 26.0409 C 0.1332 26.2255 0.0686 26.4157 0.041 26.5986 L 0.0293 26.7342 L 0.0298 26.7673 L 0.0303 26.7755 C -0.3849 26.5579 3.645 28.6735 1.9395 27.7778 L 1.9395 27.7778 L 1.9397 27.7775 L 1.9407 27.7764 L 1.9421 27.7751 L 1.9447 27.7723 L 1.9561 27.7603 L 1.9972 27.7094 C 2.0476 27.6374 2.0787 27.5483 2.0784 27.4309 C 1.9475 27.4339 1.9575 27.2876 1.8933 27.2024 C 2.0646 27.2804 1.8676 27.0004 2.0693 27.2076 C 2.1667 27.3461 2.2241 27.4053 2.1863 27.5225 C 2.4121 27.46 2.6697 27.2557 2.6663 27.0569 C 2.6675 27.1558 2.7358 27.1675 2.8041 27.1784 C 2.6252 26.9749 2.7247 26.8435 2.8788 26.8442 L 2.9932 26.9631 L 2.9506 26.7809 C 3.0192 26.7936 3.2028 27.0204 3.1997 26.8226 L 3.119 26.6622 C 3.2998 26.6909 3.5784 26.7613 3.5984 26.5671 L 3.5374 26.3094 C 3.5981 26.2934 3.7644 26.3475 3.7271 26.465 C 3.819 26.2076 3.9246 26.1008 3.8538 25.8917 C 4.4775 26.0427 4.9426 25.6996 5.283 25.3839 L 5.1962 25.2953 C 5.2227 25.1275 5.3795 25.4245 5.395 25.3034 C 5.291 25.236 5.3115 25.0433 5.146 24.9903 C 5.2058 24.778 5.4575 25.0167 5.5828 24.9888 C 5.6958 25.1048 5.4458 24.965 5.5901 25.113 C 5.641 25.1461 5.705 24.8605 5.8772 25.0358 C 5.853 24.9326 5.7152 24.8125 5.6353 24.7491 L 5.7935 24.7756 C 5.7208 24.4669 5.2411 24.5613 5.1333 24.197 L 5.2356 24.1651 C 5.1526 23.9037 4.85 24.102 4.9927 23.8763 C 5.1526 23.9037 5.4443 24.1252 5.4349 24.271 C 5.6547 24.1828 5.877 24.6651 6.0552 24.4967 C 6.019 24.3425 5.8811 24.5914 5.7941 24.4037 C 5.7625 24.1769 6.0425 24.3472 6.0801 24.2289 C 6.0479 24.3721 6.2754 24.5074 6.3604 24.4964 C 6.3867 24.329 6.1549 24.3649 6.2772 24.2354 C 6.3867 24.329 6.5789 24.3117 6.53 24.4763 C 6.7773 24.689 6.6182 24.2922 6.8464 24.4288 C 6.7527 24.2157 6.3838 24.131 6.4658 23.9223 C 6.5754 24.1121 6.8342 24.0063 6.9526 24.3232 C 6.9736 24.2271 6.8745 24.0875 6.7493 24.0173 C 6.7515 23.8444 7.199 24.1659 6.9617 23.8047 L 7.1272 23.9562 C 7.1093 23.8783 7.1138 23.8055 7.0835 23.6766 C 7.1553 23.6144 7.5093 23.7228 7.2958 23.464 C 7.3411 23.4723 7.5027 23.3253 7.5793 23.5599 C 7.5605 23.7553 7.3531 23.5233 7.4869 23.8169 C 7.4048 23.5562 7.6608 23.722 7.7745 23.7408 L 7.7046 23.6305 C 7.7727 23.6416 7.8386 23.5525 7.9482 23.645 C 7.8745 23.6091 7.8347 23.5275 7.8442 23.4798 L 8.0042 23.6047 C 8.2125 23.5642 7.8254 23.3041 8.0051 23.2349 L 7.8013 23.2015 C 7.8457 23.2083 7.7808 23.0237 7.8877 23.0175 C 8.0254 23.138 8.2087 23.2683 8.3181 23.3599 C 8.448 23.3576 8.2292 23.171 8.4236 23.2532 L 8.1851 23.1655 C 8.1326 23.1314 8.0725 22.8755 8.1841 22.7933 C 8.2917 22.7874 8.5593 22.9064 8.511 23.0708 C 8.5674 23.0302 8.5753 22.8823 8.4514 22.8137 C 8.6135 22.7648 8.5549 22.9792 8.7301 22.9827 C 8.6997 22.8538 8.7301 22.6115 8.7043 22.4095 L 8.4077 22.2601 L 8.4799 22.1996 C 8.2356 22.0853 8.4152 22.0162 8.204 21.8588 C 8.2302 21.7874 8.3444 21.8068 8.4344 21.8206 C 8.5378 22.2587 8.943 22.1279 9.1288 22.4546 C 9.3939 22.3741 8.6984 21.6426 9.2678 21.9331 C 9.2931 22.037 9.5664 22.1809 9.3728 22.1971 C 9.4736 22.0656 9.6881 22.4229 9.7417 22.1843 C 9.5376 22.1512 9.6279 21.7944 9.332 21.7451 C 9.4192 21.8344 9.3015 21.8895 9.2561 21.8818 C 9.22 21.728 9.0145 21.5952 9.1429 21.493 C 9.2437 21.4588 9.356 21.3789 9.4597 21.5441 C 9.5869 21.7135 9.3257 21.6213 9.5083 21.7508 C 9.7107 21.685 9.5374 21.4094 9.8345 21.6555 C 9.7173 21.7101 9.8275 21.9025 9.9198 22.016 L 10.0889 21.9948 L 9.9797 21.9012 C 10.1013 21.6746 10.1921 22.0597 10.3474 21.8884 L 10.2592 21.6021 C 10.0684 21.4463 10.0649 21.8922 9.8555 21.5582 C 9.9619 21.4538 10.123 21.5801 10.1696 21.413 L 10.04 21.4163 C 10.0739 21.3737 9.7947 20.9312 10.1482 21.0399 C 10.3063 21.0652 10.2566 21.1321 10.3489 21.2457 C 10.5626 21.1328 10.7104 21.2063 10.8447 21.1292 C 10.6439 20.9235 11.0397 20.9388 10.7271 20.8136 C 10.7692 20.994 10.4893 21.1948 10.2548 21.0317 C 10.1141 20.7114 10.1382 21.186 9.887 20.9473 C 10.0311 20.8221 9.8184 20.5656 9.7073 20.3737 C 9.7395 20.3292 9.837 20.3701 9.8826 20.3771 C 10.0271 20.5257 9.9709 20.5659 10.0984 20.7354 C 10.2307 20.559 10.4624 20.5222 10.6774 20.6066 C 10.6707 20.4827 10.5264 20.3348 10.4482 20.3718 C 10.6842 20.2625 10.8785 20.0716 11.0288 19.8737 C 11.1141 20.2347 11.2876 19.7689 11.3767 20.0549 C 11.3225 20.1946 11.3823 20.4508 11.5313 20.5258 C 11.5813 20.4589 11.4387 20.4115 11.4209 20.3343 C 11.6143 20.4147 11.3643 20.0039 11.6217 20.1689 C 11.3735 20.2273 11.3344 19.8744 11.1392 19.694 C 11.3611 19.7067 11.0181 19.5512 11.1473 19.4484 C 11.3674 19.4601 11.5984 19.424 11.7781 19.3539 C 11.8059 19.0129 12.2361 18.9851 12.4043 18.8642 C 12.4077 18.692 12.1667 18.5035 12.2271 18.3897 C 12.3389 18.3083 12.3448 18.7064 12.4209 18.4717 L 12.3689 18.4375 C 12.46 18.4531 12.5383 18.0453 12.8489 18.3439 L 12.6011 18.1298 C 12.6125 18.0826 12.686 18.1188 12.7317 18.1265 C 12.6683 18.0428 12.6444 17.9402 12.5535 17.9241 C 12.5153 17.6713 12.7825 17.7875 12.8954 17.7095 L 12.9441 17.9145 C 13.2201 17.8863 13.2267 17.6397 13.4457 17.551 L 13.3252 17.4085 L 13.5001 17.4123 C 13.3625 17.2908 13.3879 17.1218 13.537 17.1965 L 12.9805 17.0551 C 12.9719 17.2023 13.2029 17.166 13.2683 17.349 C 13.3264 17.5081 13.1306 17.5984 12.9933 17.4778 C 13.0436 17.4117 13.0717 17.4417 13.1621 17.4561 C 13.0231 17.235 12.9333 17.3188 12.7793 17.2199 C 12.819 17.202 12.8174 17.1028 12.8751 17.1617 C 12.7321 17.1138 12.6545 17.15 12.5424 17.2305 C 12.6783 17.2529 12.6021 17.3888 12.6748 17.4252 C 12.5256 17.252 12.3789 17.2783 12.2852 17.4349 C 12.3525 17.7189 11.9294 17.4999 11.8196 17.6801 C 12.0253 17.8127 12.22 17.8954 12.3718 17.8944 C 12.3461 18.0628 12.2593 17.9742 12.2341 18.1439 C 12.08 18.0451 11.8843 17.8638 11.6926 17.8818 L 11.791 18.0215 C 11.6224 18.0442 11.4669 17.845 11.3494 17.9977 C 11.1509 18.2632 10.8931 18.4676 10.715 18.6358 L 10.8125 18.7757 C 10.4814 18.5728 10.3755 18.9504 10.1322 18.9368 C 9.9901 19.2594 9.5028 19.2286 9.5592 19.559 C 9.0481 19.7968 8.5933 19.9938 8.1863 20.3963 L 8.4141 20.5322 C 8.2219 20.4518 8.4502 20.6859 8.3494 20.7191 C 8.3174 20.4919 8.0824 20.6027 7.9337 20.5265 C 7.854 20.8362 7.4697 20.8726 7.1866 20.8751 L 7.2852 21.0149 C 6.91 20.9035 6.8708 21.2932 6.6819 21.5101 C 6.7 21.5861 6.7585 21.7438 6.6812 21.7815 C 6.3906 21.6592 6.34 21.7246 6.0576 21.7286 C 5.929 21.8306 5.7621 22.0499 5.6975 22.2382 C 4.9746 22.3169 4.6333 22.9045 3.9862 23.1196 L 4.0735 23.3064 C 3.3214 23.3557 2.9611 24.1381 2.4089 24.295 L 2.6604 24.5331 C 2.5952 24.7202 2.3077 24.6984 2.1912 24.4805 C 2.1249 24.6673 1.762 24.609 1.8525 24.897 C 1.7578 25.0527 1.5911 24.9018 1.4513 24.954 C 1.2637 25.2686 1.1458 25.3242 0.854 25.4742 L 0.9036 25.4077 C 0.9778 25.4451 1.0697 25.5576 1.0206 25.6251 C 0.8673 25.6248 0.7305 25.9727 0.5723 25.5756 L 0.4021 25.806 L 0.3984 25.8087 L 0.3984 25.8087 C 4.6074 28.0189 1.5651 26.4212 2.5044 26.9146 L 2.5049 26.9138 L 2.5048 26.9128 L 2.5049 26.9107 L 2.5057 26.9016 L 2.5076 26.8831 L 2.5125 26.8463 L 2.5261 26.7727 L 2.561 26.624 C 2.6084 26.4254 2.6454 26.2276 2.4956 26.0501 C 2.6045 26.0849 2.6301 26.001 2.7067 25.9699 C 2.7263 25.6667 2.5161 25.334 2.7166 25.1029 C 2.6636 25.0518 2.5244 25.1687 2.5188 25.0445 C 2.5647 24.9738 2.6636 25.0518 2.7302 24.9649 C 2.9607 24.4854 2.5659 23.9561 2.6416 23.512 C 2.8938 22.7299 2.8441 21.902 2.9241 21.1456 L 2.8425 21.1484 C 3.1682 20.9175 2.5616 20.5291 3.041 20.3618 C 2.9674 20.2962 3.0186 20.1301 2.8589 20.1625 C 3.0907 19.9776 2.6877 19.5804 2.9843 19.3104 L 2.9357 19.3804 C 2.7776 19.0711 3.048 18.8336 2.9124 18.5099 C 2.8743 18.5382 2.844 18.593 2.762 18.5954 C 2.6166 18.4616 3.1289 18.3422 2.7434 18.2415 C 2.7527 18.1731 2.9441 18.2103 2.929 18.2514 C 2.8354 17.5588 3.1477 16.8586 3.2974 16.1646 C 3.1086 15.6343 2.6428 16.0618 2.9685 15.6946 C 2.8961 15.6536 3.1196 15.6876 3.0391 15.6732 C 3.1611 15.5311 2.6256 15.3835 2.8438 15.3002 C 3.0778 15.3718 2.9868 15.2449 3.1329 15.2587 C 3.0155 14.934 2.8071 14.8453 3.0195 14.6249 L 2.8911 14.6279 C 3.2821 14.3873 3.1323 14.0336 3.5723 13.849 L 3.7948 12.7012 L 3.9167 12.1362 L 3.9791 11.8552 L 3.9868 11.8204 L 3.9906 11.8029 C 3.4106 12.3925 5.2891 10.4815 2.6903 13.1246 L 2.6914 13.1246 L 2.6935 13.1249 L 2.6975 13.1249 L 2.7058 13.1255 L 2.7708 13.129 L 2.9011 13.136 C 3.5934 13.173 4.2639 13.2007 4.9355 13.1739 C 6.2841 13.207 7.5447 13.5929 8.9648 13.8317 C 9.3882 13.5925 9.4147 13.6432 9.7235 13.9026 C 9.7269 13.8458 9.709 13.8248 9.7495 13.7863 C 9.676 14.0526 9.9911 13.9101 9.9355 14.1692 C 10.4606 14.3281 10.8967 14.5616 11.4211 14.7948 C 11.3491 14.7294 11.3943 14.5039 11.4871 14.5665 L 11.5222 14.7748 L 11.5696 14.7121 C 11.6216 14.7809 11.6417 14.9395 11.5371 14.9884 C 12.7485 15.7994 14.3109 15.929 15.6473 16.6093 C 16.0273 16.6416 16.464 16.9332 16.8108 17.1356 C 18.0045 17.2799 19.1366 17.2166 20.2151 17.8251 C 20.2145 17.825 20.2109 17.0856 19.798 16.7921 ZM 13.4869 16.5214 C 13.6656 16.4506 13.5417 16.7526 13.64 16.5215 C 13.5593 16.4586 13.4854 16.4219 13.4869 16.5214 ZM 20.7891 7.8015 L 20.8484 7.7767 L 20.7217 7.559 L 20.7891 7.8015 ZM 28.7595 5.2408 C 28.5359 5.2298 28.6581 5.3927 28.6307 5.4202 C 28.8147 5.3765 28.5155 5.2981 28.7595 5.2408 ZM 43.8202 2.4241 L 44.0308 2.4705 L 43.995 2.3515 L 43.8202 2.4241 ZM 3.0127 24.6911 C 4.1486 23.6475 4.5635 21.7401 5.8759 20.7582 C 6.0068 20.6309 5.5708 20.5744 5.8887 20.3026 C 7.2057 19.4474 8.5728 17.5204 9.5212 15.9078 L 9.3748 15.9225 C 9.5547 15.6192 10.074 15.5221 10.2952 15.2231 C 10.2477 15.1768 10.144 15.2468 10.1357 15.1243 C 10.3474 15.1894 10.6643 14.6999 10.8809 14.6864 C 10.9246 14.5279 10.7993 14.4313 10.8662 14.2345 L 11.1765 14.2351 C 11.9705 14.1786 12.1328 13.1733 12.8823 12.7855 C 12.8186 12.7762 12.7351 12.8052 12.7428 12.7228 C 13.822 11.9848 15.0114 10.9159 16.1387 10.0308 C 16.0436 10.0085 14.3531 10.8947 14.5776 10.9401 C 14.5204 10.9662 14.6106 10.7631 14.6901 10.703 C 14.9325 10.4483 15.163 10.7747 15.4241 10.4879 C 15.2596 10.4991 15.1714 10.4492 15.1638 10.3383 C 15.5464 10.3627 15.8978 10.1247 16.2572 9.9987 C 16.1842 9.988 16.0928 10.0096 16.0623 9.9286 C 16.5366 9.9335 16.6896 9.5167 17.0747 9.4709 L 16.8833 9.4008 C 17.297 8.9496 17.188 9.602 17.5691 9.2576 C 17.4413 9.2735 17.4489 9.1984 17.4001 9.1535 C 17.9438 9.179 18.541 8.7007 19.0145 8.6063 L 18.9672 8.5577 C 19.4396 8.3726 19.8792 8.0663 20.4352 7.9386 C 20.5883 7.7896 20.2106 7.6254 20.7208 7.4467 C 20.8365 7.7368 21.597 7.172 21.4608 7.6276 C 21.8507 7.3862 22.4562 6.9685 22.7732 6.935 C 22.5402 6.915 22.8219 6.4891 22.4673 6.6295 L 22.6523 6.3317 C 22.5624 6.2338 22.401 6.4992 22.4194 6.3126 C 22.5934 6.2302 23.1621 6.1408 23.3026 6.0338 C 23.7087 6.0804 24.1471 6.2922 24.6925 6.1216 C 24.3969 6.1066 24.7062 5.7468 24.5166 5.7639 L 25.479 6.0294 C 25.66 5.9743 25.4271 5.7841 25.7124 5.7609 C 25.7294 5.8431 25.8586 5.847 25.9598 5.8798 C 26.0139 5.8198 26.7189 5.666 26.6896 5.3478 C 26.7269 5.2045 26.3793 5.4004 26.5374 5.2205 C 26.865 5.0958 26.9156 5.1888 27.2439 5.0657 L 27.2367 5.0244 C 27.4335 4.8865 27.9258 4.9287 27.7417 5.162 C 27.5916 5.2195 27.7382 4.9688 27.5408 5.1257 C 27.7556 5.2436 28.1591 5.171 28.493 5.0695 C 28.3634 5.0583 28.3507 4.9765 28.2771 4.9085 C 28.8035 4.9967 29.3005 4.9211 29.8297 4.8602 C 29.8826 4.9979 29.5625 4.6663 29.5122 4.7627 C 30.0931 4.3685 30.9183 4.6235 31.365 4.1731 C 31.2701 4.1755 31.3771 4.3871 31.3711 4.3458 C 31.6738 4.2321 31.6005 4.033 31.8234 4.0452 C 31.8094 3.9196 32.0873 4.0047 32.3038 3.9763 C 32.4363 4.0376 32.3411 3.8987 32.158 3.9447 C 32.4772 3.9557 33.6925 3.889 34.3231 3.5533 C 34.3292 3.6362 34.8041 3.7516 34.9558 3.7074 L 34.8536 3.5337 C 34.9708 3.3888 35.3759 3.4305 35.3679 3.2629 C 35.7491 3.4151 34.0475 3.3642 34.5348 3.4362 C 34.6171 3.2533 35.2255 3.5913 35.0731 3.3578 C 35.3872 3.2932 35.7312 3.4349 35.9932 3.1903 C 35.9136 3.2406 35.688 2.9871 35.9434 2.9424 C 36.3987 2.8917 36.0884 3.0089 36.4664 3.0143 L 36.7097 3.0585 C 36.7579 3.2395 37.1083 2.9749 36.9773 3.2043 C 37.0065 3.0451 37.6458 3.2039 37.5494 2.9047 L 37.4464 2.6727 C 37.6456 2.662 37.8085 2.8802 37.9775 2.9642 C 37.9998 2.9387 38.0432 2.8825 38.0275 2.845 C 38.1154 3.2102 38.4883 2.7464 38.7606 2.9983 C 39.1501 2.8102 39.7924 2.8356 39.958 2.5764 C 40.2867 2.6524 40.5903 2.7771 40.9419 2.6698 C 40.8665 2.6387 40.7673 2.6357 40.7388 2.5569 C 40.955 2.4323 41.0208 2.5266 41.2338 2.5726 C 41.1821 2.5204 41.6681 2.3239 41.9117 2.175 C 42.2368 2.2646 42.1429 2.4731 42.1842 2.5933 C 42.4464 2.2062 43.0873 2.77 43.4266 2.4116 C 43.3149 2.3676 42.9553 2.2624 43.2136 2.152 C 43.484 1.7695 43.8103 2.3736 44.267 2.1853 L 44.1646 2.4897 C 44.3654 2.3021 59.5825 1.5447 58.7218 1.6654 C 58.8118 1.5723 58.6163 1.5048 58.5479 1.4116 C 57.8295 1.2462 57.0436 1.262 56.4949 1.0099 C 56.3712 1.0468 56.6462 1.2252 56.3499 1.1907 C 56.1829 1.1218 56.371 1.0468 56.1655 0.952 C 55.0195 0.5638 53.7576 0.7941 52.7031 0.5781 C 50.8135 0.2549 48.8112 0.0601 46.9758 0.0805 L 46.996 0.1626 C 46.3799 -0.1541 45.5591 0.4737 45.0609 0 C 44.9176 0.0769 44.5065 0.0339 44.6191 0.1924 C 44.1198 -0.0562 43.2638 0.4556 42.5426 0.2179 L 42.7227 0.25 C 42.0236 0.4791 41.3755 0.2752 40.6384 0.489 C 40.7185 0.5198 40.8594 0.5356 40.8895 0.6157 C 40.6169 0.792 40.1667 0.3188 40.0508 0.7224 C 39.8845 0.7305 39.9102 0.5335 40.0133 0.538 C 38.4039 0.9257 36.6188 0.8607 34.9114 1.1404 C 33.7574 1.6468 34.9807 1.8079 33.9708 1.7371 C 33.9104 1.829 33.8804 1.603 33.8862 1.6855 C 33.4933 1.6617 33.4213 2.2455 33.1201 2.1029 C 33.1653 1.8433 32.9182 2.0095 32.874 1.8683 C 32.1835 2.2015 32.0856 2.4085 31.4786 2.4172 L 31.556 2.527 C 30.799 2.3859 30.0916 2.8098 29.4103 2.5863 C 25.7278 3.597 22.2401 4.8172 18.849 6.417 C 15.5576 8.1085 9.791 13.9874 7.4729 16.393 C 7.0068 17.0797 6.1268 17.882 5.4952 18.5613 C 4.0398 20.9297 2.7417 23.0456 1.7014 25.9305 C 1.7017 25.9288 2.5103 25.7076 3.0127 24.6911 Z" fill="#878787"/>
	</g>
</svg>