<?xml version="1.0" encoding="utf-8"?>
<!-- Generator: Adobe Illustrator 27.5.0, SVG Export Plug-In . SVG Version: 6.00 Build 0)  -->
<svg version="1.2" baseProfile="tiny-ps" id="Layer_1" xmlns="http://www.w3.org/2000/svg" xmlns:xlink="http://www.w3.org/1999/xlink"
	 viewBox="0 0 100 100" xml:space="preserve">
<title>Glasdiscount.nl</title>
<rect fill="#07506F" width="100" height="100"/>
<g>
	<path fill="#FFFFFF" d="M35.53,55.29c-3.46,0.89-6.35,1.33-8.68,1.33c-5,0-8.79-1.37-11.38-4.11c-2.58-2.74-3.87-6.07-3.87-9.98
		c0-4.12,1.41-7.69,4.22-10.73c2.81-3.04,6.71-4.56,11.7-4.56c2.34,0,4.41,0.21,6.19,0.63L33,33.02c-2.28-0.6-4.33-0.89-6.15-0.89
		c-3.07,0-5.36,0.94-6.87,2.82c-1.51,1.88-2.27,4.18-2.27,6.9c0,2.78,0.85,5.2,2.54,7.26c1.69,2.06,4.03,3.1,7.01,3.1
		c0.83,0,1.79-0.09,2.88-0.26c-0.22-1.61-0.33-3.2-0.33-4.76c0-1.57-0.15-3.34-0.46-5.3h6.17c-0.12,2.24-0.17,4.49-0.17,6.76
		C35.35,50.3,35.41,52.51,35.53,55.29z"/>
	<path fill="#FFFFFF" d="M46.63,56.03h-5.95C40.89,51.04,41,45.64,41,39.82c0-5.67-0.23-10.49-0.68-14.46l6.3-0.35
		c-0.22,4.12-0.33,9.05-0.33,14.81C46.3,45.67,46.41,51.07,46.63,56.03z"/>
	<path fill="#FFFFFF" d="M69.38,56.01l-5.15,0.17c-0.23-0.61-0.35-1.16-0.35-1.66H63.6c-1.6,1.37-3.76,2.05-6.48,2.05
		c-1.82,0-3.33-0.51-4.53-1.52c-1.2-1.01-1.8-2.35-1.8-4.02c0-2.21,0.93-4.02,2.8-5.43c1.87-1.41,5.14-2.16,9.83-2.25
		c0.03-0.26,0.04-0.51,0.04-0.74c0-1.57-0.38-2.61-1.13-3.11c-0.76-0.5-2.15-0.75-4.17-0.75c-2.2,0-4.34,0.29-6.43,0.87l0.48-4.01
		c1.98-0.68,4.77-1.03,8.38-1.03c2.63,0,4.66,0.55,6.1,1.66c1.43,1.11,2.15,3.04,2.15,5.8c0,0.61-0.03,1.72-0.08,3.34
		c-0.05,1.61-0.08,2.69-0.08,3.23C68.68,51.62,68.91,54.09,69.38,56.01z M63.56,51.47c-0.09-1.96-0.13-3.66-0.13-5.08
		c-4.96,0-7.44,1.26-7.44,3.77c0,1.73,1.09,2.6,3.27,2.6C60.97,52.76,62.41,52.33,63.56,51.47z"/>
	<path fill="#FFFFFF" d="M88.4,50.08c0,4.36-3.23,6.54-9.68,6.54c-2.36,0-4.41-0.25-6.17-0.76l0.74-4.3
		c1.82,0.65,3.63,0.98,5.43,0.98c1.74,0,2.96-0.15,3.63-0.44c0.68-0.29,1.01-0.78,1.01-1.46c0-1.06-1.22-2.07-3.66-3.03
		c-2.14-0.84-3.69-1.67-4.67-2.49c-1.34-1.13-2.01-2.52-2.01-4.17c0-1.93,0.72-3.49,2.16-4.67c1.44-1.18,3.53-1.77,6.28-1.77
		c2.57,0,4.59,0.23,6.06,0.68l-0.74,4.32c-1.64-0.64-3.42-0.96-5.32-0.96c-2.33,0-3.49,0.6-3.49,1.79c0,0.61,0.25,1.1,0.74,1.47
		c0.49,0.37,1.51,0.84,3.03,1.41c2.11,0.77,3.64,1.56,4.6,2.38C87.72,46.77,88.4,48.26,88.4,50.08z"/>
	<path fill="#C8C8C8" d="M20.01,59.04v9.79c0,0.72,0.02,1.54,0.07,2.09h-1.32l-0.07-1.41h-0.03c-0.45,0.9-1.44,1.59-2.76,1.59
		c-1.96,0-3.46-1.66-3.46-4.12c-0.02-2.69,1.66-4.35,3.63-4.35c1.24,0,2.08,0.59,2.44,1.24h0.03v-4.84H20.01z M18.54,66.12
		c0-0.18-0.02-0.44-0.07-0.62c-0.22-0.94-1.02-1.71-2.13-1.71c-1.52,0-2.43,1.34-2.43,3.13c0,1.64,0.8,3,2.39,3
		c0.99,0,1.89-0.65,2.16-1.76c0.05-0.2,0.07-0.4,0.07-0.64V66.12z"/>
	<path fill="#C8C8C8" d="M24.1,60.54c0.02,0.5-0.35,0.9-0.94,0.9c-0.52,0-0.89-0.4-0.89-0.9c0-0.52,0.38-0.92,0.92-0.92
		C23.74,59.62,24.1,60.02,24.1,60.54z M22.45,70.92v-8.1h1.47v8.1H22.45z"/>
	<path fill="#C8C8C8" d="M26.17,69.41C26.61,69.7,27.38,70,28.11,70c1.07,0,1.57-0.54,1.57-1.21c0-0.7-0.42-1.09-1.51-1.49
		c-1.46-0.52-2.14-1.32-2.14-2.29c0-1.31,1.05-2.38,2.8-2.38c0.82,0,1.54,0.23,1.99,0.5l-0.37,1.07c-0.32-0.2-0.9-0.47-1.66-0.47
		c-0.87,0-1.36,0.5-1.36,1.1c0,0.67,0.49,0.97,1.54,1.37c1.41,0.54,2.13,1.24,2.13,2.44c0,1.42-1.1,2.43-3.03,2.43
		c-0.89,0-1.71-0.22-2.28-0.55L26.17,69.41z"/>
	<path fill="#C8C8C8" d="M38.77,70.62c-0.39,0.2-1.24,0.47-2.33,0.47c-2.44,0-4.03-1.66-4.03-4.13c0-2.49,1.71-4.3,4.35-4.3
		c0.87,0,1.64,0.22,2.04,0.42l-0.33,1.14c-0.35-0.2-0.9-0.38-1.71-0.38c-1.86,0-2.86,1.37-2.86,3.06c0,1.87,1.21,3.03,2.81,3.03
		c0.84,0,1.39-0.22,1.81-0.4L38.77,70.62z"/>
	<path fill="#C8C8C8" d="M47.73,66.8c0,3-2.08,4.3-4.03,4.3c-2.19,0-3.88-1.61-3.88-4.17c0-2.71,1.77-4.3,4.02-4.3
		C46.15,62.63,47.73,64.32,47.73,66.8z M41.3,66.89c0,1.77,1.02,3.11,2.46,3.11c1.41,0,2.46-1.32,2.46-3.15
		c0-1.37-0.69-3.11-2.43-3.11C42.05,63.74,41.3,65.35,41.3,66.89z"/>
	<path fill="#C8C8C8" d="M56.36,68.71c0,0.84,0.02,1.57,0.07,2.21h-1.31l-0.08-1.32h-0.03c-0.38,0.65-1.24,1.51-2.68,1.51
		c-1.27,0-2.8-0.7-2.8-3.55v-4.74h1.47v4.49c0,1.54,0.47,2.58,1.81,2.58c0.99,0,1.67-0.69,1.94-1.34c0.08-0.22,0.13-0.49,0.13-0.75
		v-4.97h1.47V68.71z"/>
	<path fill="#C8C8C8" d="M58.81,65.01c0-0.84-0.02-1.52-0.07-2.19h1.31l0.08,1.34h0.03c0.4-0.77,1.34-1.52,2.68-1.52
		c1.12,0,2.86,0.67,2.86,3.45v4.84h-1.47v-4.67c0-1.31-0.49-2.39-1.87-2.39c-0.97,0-1.72,0.69-1.98,1.51
		c-0.07,0.18-0.1,0.44-0.1,0.69v4.87h-1.47V65.01z"/>
	<path fill="#C8C8C8" d="M69.8,60.49v2.33h2.11v1.12H69.8v4.37c0,1,0.28,1.57,1.1,1.57c0.39,0,0.67-0.05,0.85-0.1l0.07,1.1
		c-0.28,0.12-0.74,0.2-1.31,0.2c-0.69,0-1.24-0.22-1.59-0.62c-0.42-0.44-0.57-1.16-0.57-2.11v-4.42h-1.26v-1.12h1.26v-1.94
		L69.8,60.49z"/>
	<path fill="#FFFFFF" d="M73.17,70.05c0-0.62,0.42-1.05,1-1.05c0.59,0,0.99,0.44,0.99,1.05c0,0.6-0.38,1.05-1,1.05
		C73.57,71.1,73.17,70.65,73.17,70.05z"/>
	<path fill="#FFFFFF" d="M76.98,65.01c0-0.84-0.02-1.52-0.07-2.19h1.31l0.08,1.34h0.03c0.4-0.77,1.34-1.52,2.68-1.52
		c1.12,0,2.86,0.67,2.86,3.45v4.84h-1.47v-4.67c0-1.31-0.49-2.39-1.87-2.39c-0.97,0-1.72,0.69-1.98,1.51
		c-0.07,0.18-0.1,0.44-0.1,0.69v4.87h-1.47V65.01z"/>
	<path fill="#FFFFFF" d="M86.27,59.04h1.47v11.88h-1.47V59.04z"/>
</g>
</svg>
